<svg xmlns="http://www.w3.org/2000/svg" viewBox="0 0 24 24"><path d="M16.2 1c.3 0 .5.1.7.3l5.9 5.9c.1.1.2.4.2.7v8.3c0 .3-.1.5-.3.7l-5.9 5.9c-.1.1-.4.2-.7.2H7.9c-.3 0-.5-.1-.7-.3l-5.9-5.9c-.2-.1-.3-.4-.3-.7V7.9c0-.3.1-.5.3-.7l5.9-5.9c.1-.2.4-.3.7-.3h8.3zM9.7 8.3c-.4-.4-1-.4-1.4 0-.4.4-.4 1 0 1.4l2.3 2.3-2.3 2.3c-.4.4-.4 1 0 1.4.2.2.4.3.7.3.3 0 .5-.1.7-.3l2.3-2.3 2.3 2.3c.2.2.4.3.7.3.3 0 .5-.1.7-.3.4-.4.4-1 0-1.4L13.4 12l2.3-2.3c.4-.4.4-1 0-1.4-.4-.4-1-.4-1.4 0L12 10.6z" fill="#9C0000" fill-rule="nonzero"></path></svg>