<svg xmlns="http://www.w3.org/2000/svg" width="480" height="480" viewBox="0 0 480 480">
  <defs>
    <filter id="enables-deforestation-fossil-fuels-a">
      <feColorMatrix in="SourceGraphic" values="0 0 0 0 0.760784 0 0 0 0 0.929412 0 0 0 0 1.000000 0 0 0 1.000000 0" />
    </filter>
  </defs>
  <g fill="none" fill-rule="evenodd">
    <g stroke="#FF5DCF" opacity="0">
      <circle cx="240" cy="240" r="200" />
      <rect width="280" height="280" x="100" y="100" />
      <line x2="480" y2="480" stroke-linecap="square" />
      <line x2="480" y2="480" stroke-linecap="square" transform="matrix(-1 0 0 1 480 0)" />
    </g>
    <g transform="translate(64 53)">
      <g filter="url(#enables-deforestation-fossil-fuels-a)">
        <path fill="#E6E9ED" fill-rule="nonzero" d="M83.7666667 167.222222C96.9898333 167.222222 107.7 177.9125 107.7 191.111111 107.7 204.309722 96.9898333 215 83.7666667 215L23.9333333 215C10.7101667 215 0 204.309722 0 191.111111 0 177.9125 10.7101667 167.222222 23.9333333 167.222222 23.9333333 154.023611 37.336 143.333333 53.85 143.333333 70.364 143.333333 83.7666667 154.023611 83.7666667 167.222222zM31.4125 59.7819444C30.4551667 55.9597222 29.9166667 51.8986111 29.9166667 47.7777778 29.9166667 21.3805556 51.337 0 77.7833333 0 99.0241667 0 116.974167 13.7958333 123.256667 32.8472222 127.6245 30.9361111 132.530833 29.8611111 137.616667 29.8611111 142.044333 29.8611111 146.2925 30.6972222 150.181667 32.1305556 141.745167 44.8513889 131.633333 55.3027778 131.633333 65.6944444 131.633333 89.5833333 143.6 107.5 179.5 107.5L125.65 107.5 125.65 119.444444 29.9166667 119.444444C13.4026667 119.444444 0 106.066667 0 89.5833333 0 73.1 13.4026667 59.7222222 29.9166667 59.7222222 30.3953333 59.7222222 30.9338333 59.7222222 31.4125 59.7819444zM335.066667 89.5833333C348.289833 89.5833333 359 100.273611 359 113.472222 359 126.670833 348.289833 137.361111 335.066667 137.361111L275.233333 137.361111C262.010167 137.361111 251.3 126.670833 251.3 113.472222 251.3 100.273611 262.010167 89.5833333 275.233333 89.5833333 275.233333 76.3847222 288.636 65.6944444 305.15 65.6944444 321.664 65.6944444 335.066667 76.3847222 335.066667 89.5833333z" transform="translate(6)" />
      </g>
      <polygon fill="#C2EDFF" fill-rule="nonzero" points="60 251 311 251 311 299 60 299" />
      <polygon fill="#C2EDFF" fill-rule="nonzero" points="359 353 371 353 371 365 359 365" />
      <polygon fill="#C2EDFF" fill-rule="nonzero" points="0 353 12 353 12 365 0 365" />
    </g>
    <g fill="#00599A" fill-rule="nonzero" transform="translate(64 46)">
      <path d="M335.034483,300.32485 L317.086207,300.32485 L317.086207,264.487275 L329.051724,264.487275 L329.051724,252.541417 L227.344828,252.541417 L227.344828,153.474414 L245.293103,135.555627 L245.293103,109.191118 L227.428586,109.191118 C235.295914,102.238628 239.310345,92.2996741 239.310345,79.326472 C239.310345,60.2967197 228.655052,47.8013519 220.093724,37.760858 C214.350276,31.0353398 209.396552,25.2177068 209.396552,19.5971805 L209.396552,11.3127278 L201.523241,13.9288708 C201.068552,14.078194 195.450741,16.0253689 190.006431,20.7320371 C181.780138,5.28604229 169.581293,2.00690419 168.971052,1.85160803 L161.534483,0 L161.534483,7.65132223 C161.534483,17.1184149 158.100379,25.2595173 153.505621,32.8212456 C146.667328,31.1667443 139.446138,31.1488255 132.673655,32.9884877 C123.974724,14.0363835 105.015362,1.67839309 83.7586207,1.67839309 C54.0661897,1.67839309 29.9137931,25.797081 29.9137931,55.4347554 C29.9137931,57.5969557 30.0633621,59.7531832 30.3206207,61.8855189 C13.1680517,64.573337 0,79.3802283 0,97.2452594 C0,117.009682 16.0996034,133.082834 35.8965517,133.082834 L125.637931,133.082834 L125.637931,135.555627 L143.586207,153.474414 L143.586207,252.541417 L41.8793103,252.541417 L41.8793103,264.487275 L53.8448276,264.487275 L53.8448276,300.32485 L35.8965517,300.32485 L35.8965517,360.054142 L23.9310345,360.054142 L23.9310345,372 L347,372 L347,360.054142 L335.034483,360.054142 L335.034483,300.32485 Z M257.258621,329.693743 L215.37931,312.270709 L299.137931,312.270709 L257.258621,329.693743 Z M323.068966,315.257173 L323.068966,357.067677 L272.813793,336.162425 L323.068966,315.257173 Z M241.703448,336.162425 L185.465517,359.558389 L129.227586,336.162425 L185.465517,312.766462 L241.703448,336.162425 Z M245.293103,300.32485 L245.293103,264.487275 L269.224138,264.487275 L269.224138,300.32485 L245.293103,300.32485 Z M233.327586,300.32485 L209.396552,300.32485 L209.396552,264.487275 L233.327586,264.487275 L233.327586,300.32485 Z M197.431034,300.32485 L173.5,300.32485 L173.5,264.487275 L197.431034,264.487275 L197.431034,300.32485 Z M161.534483,300.32485 L137.603448,300.32485 L137.603448,264.487275 L161.534483,264.487275 L161.534483,300.32485 Z M125.637931,300.32485 L101.706897,300.32485 L101.706897,264.487275 L125.637931,264.487275 L125.637931,300.32485 Z M155.551724,312.270709 L113.672414,329.693743 L71.7931034,312.270709 L155.551724,312.270709 Z M98.1172414,336.162425 L47.862069,357.067677 L47.862069,315.257173 L98.1172414,336.162425 Z M113.672414,342.631107 L155.551724,360.054142 L71.7931034,360.054142 L113.672414,342.631107 Z M257.258621,342.631107 L299.137931,360.054142 L215.37931,360.054142 L257.258621,342.631107 Z M305.12069,300.32485 L281.189655,300.32485 L281.189655,264.487275 L305.12069,264.487275 L305.12069,300.32485 Z M173.5,97.2452594 C173.5,94.6768999 174.349552,92.132432 175.887121,90.0777444 L185.465517,77.3374866 L195.037931,90.0777444 C196.581483,92.132432 197.431034,94.6768999 197.431034,97.2452594 C197.431034,103.8334 192.0645,109.191118 185.465517,109.191118 C178.866534,109.191118 173.5,103.8334 173.5,97.2452594 Z M172.554724,17.3752509 C175.659776,20.0809878 179.195586,24.6681974 181.798086,31.8416853 C180.392138,35.1686068 179.482759,39.0092002 179.482759,43.4888971 L191.448276,43.4888971 C191.448276,36.1481672 195.522534,31.4116344 199.255776,28.6103306 C201.684776,34.6071515 206.249621,39.952923 210.981983,45.5077471 C219.02281,54.9390023 227.344828,64.6927956 227.344828,79.326472 C227.344828,93.7033124 221.068914,102.519356 207.500017,106.563029 C208.7205,103.696023 209.396552,100.548289 209.396552,97.2452594 C209.396552,92.1145133 207.697448,87.0255776 204.610345,82.9102294 L185.465517,57.4237408 L166.314707,82.9102294 C163.233586,87.0255776 161.534483,92.1145133 161.534483,97.2452594 C161.534483,100.279507 162.162672,103.164432 163.19769,105.840304 C149.915966,100.846936 143.586207,90.2031759 143.586207,73.3535428 C143.586207,67.4761805 148.677534,60.4938264 154.564569,52.4124532 C161.480638,42.9154959 169.784707,31.5191471 172.554724,17.3752509 L172.554724,17.3752509 Z M35.8965517,121.136976 C22.6985862,121.136976 11.9655172,110.421541 11.9655172,97.2452594 C11.9655172,84.0689777 22.6985862,73.3535428 35.8965517,73.3535428 C49.0945172,73.3535428 59.8275862,84.0689777 59.8275862,97.2452594 L71.7931034,97.2452594 C71.7931034,79.7266582 59.1276034,65.1288194 42.4596379,62.0348421 C42.1126379,59.8606959 41.8793103,57.662658 41.8793103,55.4347554 C41.8793103,32.3792489 60.6711552,13.6242514 83.7586207,13.6242514 C101.880397,13.6242514 117.866328,25.1878422 123.526017,42.3898781 L125.584086,48.6315891 L131.614707,45.9975273 C136.185534,43.9965961 141.181138,43.3336009 146.081017,43.7337872 C145.680172,44.2832967 145.28531,44.8328062 144.890448,45.3823156 C138.064121,54.7478685 131.62069,63.5878037 131.62069,73.3535428 C131.62069,85.8190459 134.713776,99.6284581 145.644276,109.191118 L125.637931,109.191118 L125.637931,121.136976 L35.8965517,121.136976 Z M137.603448,130.610042 L137.603448,121.136976 L233.327586,121.136976 L233.327586,130.610042 L218.885207,145.028693 L152.045828,145.028693 L137.603448,130.610042 Z M155.551724,156.974551 L215.37931,156.974551 L215.37931,252.541417 L155.551724,252.541417 L155.551724,156.974551 Z M65.8103448,264.487275 L89.7413793,264.487275 L89.7413793,300.32485 L65.8103448,300.32485 L65.8103448,264.487275 Z" />
      <path d="M185 169C175.076 169 167 176.963833 167 186.75L167 222.25C167 232.036167 175.076 240 185 240 194.924 240 203 232.036167 203 222.25L203 186.75C203 176.963833 194.924 169 185 169zM191 222.25C191 225.510083 188.312 228.166667 185 228.166667 181.688 228.166667 179 225.510083 179 222.25L179 186.75C179 183.489917 181.688 180.833333 185 180.833333 188.312 180.833333 191 183.489917 191 186.75L191 222.25zM90 228C106.542 228 120 214.542 120 198 120 183.3 109.374 171.03 95.388 168.486 92.274 154.566 77.592 144 60 144 42.408 144 27.726 154.566 24.612 168.486 10.626 171.03 0 183.3 0 198 0 214.542 13.458 228 30 228L90 228zM12 198C12 188.076 20.076 180 30 180L36 180 36 174C36 164.076 46.764 156 60 156 73.236 156 84 164.076 84 174L84 180 90 180C99.924 180 108 188.076 108 198 108 207.924 99.924 216 90 216L30 216C20.076 216 12 207.924 12 198zM281 151L341 151C357.542 151 371 137.542 371 121 371 106.3 360.374 94.03 346.388 91.486 343.274 77.566 328.592 67 311 67 293.408 67 278.726 77.566 275.612 91.486 261.626 94.03 251 106.3 251 121 251 137.542 264.458 151 281 151zM281 103L287 103 287 97C287 87.076 297.764 79 311 79 324.236 79 335 87.076 335 97L335 103 341 103C350.924 103 359 111.076 359 121 359 130.924 350.924 139 341 139L281 139C271.076 139 263 130.924 263 121 263 111.076 271.076 103 281 103z" />
    </g>
  </g>
</svg>