<svg xmlns="http://www.w3.org/2000/svg" width="480" height="480" viewBox="0 0 480 480">
  <g fill="none" fill-rule="evenodd">
    <g stroke="#FF5DCF" opacity="0">
      <circle cx="240" cy="240" r="200"/>
      <rect width="280" height="280" x="100" y="100"/>
      <line x2="480" y2="480" stroke-linecap="square"/>
      <line x2="480" y2="480" stroke-linecap="square" transform="matrix(-1 0 0 1 480 0)"/>
    </g>
    <path fill="#C2EDFF" fill-rule="nonzero" d="M34.8454309 235.167279C15.6315878 235.167279-4.26325641e-14 219.646596-4.26325641e-14 200.569188-4.26325641e-14 181.490996 15.6315878 165.970313 34.8454309 165.970313 54.0592739 165.970313 69.691646 181.490996 69.691646 200.569188 69.691646 219.646596 54.0600582 235.167279 34.8454309 235.167279zM331.626806 234.202039C312.412963 234.202039 296.780591 218.681356 296.780591 199.603164 296.780591 180.524972 312.412179 165.004289 331.626806 165.004289 350.841433 165.004289 366.473021 180.524972 366.473021 199.603164 366.473021 218.681356 350.841433 234.202039 331.626806 234.202039zM138.597517 120.965508L175.025477 120.965508C183.257292 120.965508 189.9552 127.662596 189.9552 135.894188L189.9552 138.441762C189.9552 141.073237 187.814316 143.214643 185.182519 143.214643L147.877817 143.214643 138.597517 120.965508zM78.905288-1.42108547e-14L80.8822725-1.42108547e-14C93.4985864-1.42108547e-14 104.097921 9.45088363 105.537724 21.9825373L111.685903 75.4957254C102.457361 68.0090385 91.1114619 63.2659542 78.905288 62.1046866L78.905288-1.42108547e-14z" transform="translate(64.763 189.07)"/>
    <g fill="#00599A" fill-rule="nonzero" transform="translate(53 85)">
      <path d="M362.497094,261.4044 L362.497094,213.151025 C362.497094,204.757122 355.666656,197.92752 347.271726,197.92752 L322.370033,197.92752 L277.030351,38.7499559 L313.996276,38.7499559 C323.442827,38.7499559 331.128835,31.0656732 331.128835,21.6194942 L331.128835,17.1304617 C331.128835,7.68506683 323.443612,0 313.996276,0 L150.60215,0 C147.353967,0 144.720601,2.633043 144.720601,5.88082861 C144.720601,9.12861422 147.353967,11.7616572 150.60215,11.7616572 L313.996276,11.7616572 C316.956656,11.7616572 319.365738,14.1696605 319.365738,17.1304617 L319.365738,21.6194942 C319.365738,24.5795113 316.95744,26.9882987 313.996276,26.9882987 L41.9464206,26.9882987 C38.9860411,26.9882987 36.577743,24.5802954 36.577743,21.6194942 L36.577743,17.1304617 C36.577743,14.1704446 38.9860411,11.7616572 41.9464206,11.7616572 L127.07674,11.7616572 C130.324923,11.7616572 132.958288,9.12861422 132.958288,5.88082861 C132.958288,2.633043 130.324923,0 127.07674,0 L41.9464206,0 C32.4998693,0 24.8146458,7.68428272 24.8146458,17.1304617 L24.8146458,21.6194942 C24.8146458,31.0648891 32.4998693,38.7499559 41.9464206,38.7499559 L45.9396,38.7499559 L45.9396,165.885629 L44.2464982,165.885629 C33.8769359,165.885629 25.4404425,174.32109 25.4404425,184.689383 L25.4404425,263.076908 C25.4404425,263.168649 25.449853,263.258037 25.4545583,263.349778 C10.3617203,271.031708 0,286.649621 0,304.639468 C0,330.203038 20.9085133,351 46.6085281,351 C63.8516603,351 78.9264615,341.630664 86.9881042,327.748772 L238.149393,327.748772 C241.397577,327.748772 244.030942,325.115729 244.030942,321.867943 C244.030942,318.620158 241.397577,315.987115 238.149393,315.987115 L91.8007794,315.987115 C92.7230062,312.354331 93.2186247,308.553747 93.2186247,304.639468 C93.2186247,300.725188 92.7237904,296.924605 91.8007794,293.291821 L297.974938,293.291821 C297.203278,296.632132 296.78216,300.104173 296.78216,303.674228 C296.78216,307.937436 297.375804,312.063426 298.463498,315.987115 L261.676372,315.987115 C258.428189,315.987115 255.794823,318.620158 255.794823,321.867943 C255.794823,325.115729 258.428189,327.748772 261.676372,327.748772 L303.573388,327.748772 C311.76364,341.101389 326.547501,350.03476 343.390688,350.03476 C369.091487,350.03476 390,329.237798 390,303.674228 C390,284.881452 378.692527,268.676241 362.497094,261.4044 L362.497094,261.4044 Z M310.321484,198.568138 C294.888301,201.146294 281.680695,211.424414 275.511343,226.215874 L275.295686,226.732603 L234.983552,176.98785 L245.640134,167.196662 C248.031963,164.9988 248.188805,161.27898 245.991458,158.887443 C243.793327,156.495906 240.072268,156.339084 237.681222,158.536162 L207.54103,186.227808 C205.1492,188.425669 204.992359,192.145489 207.189706,194.537026 C208.349547,195.79866 209.933644,196.438494 211.521662,196.438494 C212.944213,196.438494 214.3699,195.925686 215.499942,194.887524 L226.305523,184.959901 L270.150507,239.065092 L254.702424,276.099414 L242.686812,261.413025 L247.056411,257.591271 C249.501566,255.453001 249.75016,251.737886 247.611629,249.293029 C245.473882,246.848173 241.756743,246.59961 239.312372,248.738663 L221.365022,264.434987 C218.919866,266.573256 218.671273,270.288372 220.809804,272.733228 C221.972782,274.062295 223.601579,274.742119 225.239002,274.742119 C226.612932,274.742119 227.993135,274.263812 229.109061,273.287594 L233.827631,269.160821 L243.947032,281.52938 L173.802115,281.52938 C173.726831,281.156927 173.615473,280.785259 173.464122,280.421431 L164.547694,259.04658 L196.944832,259.04658 C206.062801,259.04658 213.48061,251.628895 213.48061,242.512042 L213.48061,239.964467 C213.48061,225.247497 201.505777,213.27413 186.78779,213.27413 L145.453834,213.27413 L141.430071,203.628787 C140.125936,200.503323 138.57948,197.533897 136.829916,194.726781 C136.900494,194.235928 136.916963,193.730177 136.857363,193.215016 L128.986282,124.709636 C126.863435,106.237561 111.23969,92.3078382 92.6438014,92.3078382 L90.6668168,92.3078382 L90.6668168,38.7499559 L264.798298,38.7499559 L310.321484,198.568138 Z M150.360614,225.035788 L186.788574,225.035788 C195.020389,225.035788 201.718297,231.732875 201.718297,239.964467 L201.718297,242.512042 C201.718297,245.143517 199.577413,247.284923 196.945616,247.284923 L159.640914,247.284923 L150.360614,225.035788 Z M90.6683852,104.07028 L92.6453698,104.07028 C105.261684,104.07028 115.861019,113.521163 117.300822,126.052817 L123.449,179.566005 C114.220459,172.079318 102.874559,167.336234 90.6683852,166.174966 L90.6683852,104.07028 Z M57.7026973,38.7499559 L78.905288,38.7499559 L78.905288,165.885629 L57.7026973,165.885629 L57.7026973,38.7499559 Z M46.6085281,339.237559 C27.3946851,339.237559 11.7630973,323.716876 11.7630973,304.639468 C11.7630973,285.561276 27.3946851,270.040593 46.6085281,270.040593 C65.8223712,270.040593 81.4547432,285.561276 81.4547432,304.639468 C81.4547432,323.716876 65.8231554,339.237559 46.6085281,339.237559 Z M46.6085281,258.278936 C43.3877921,258.278936 40.2415557,258.60591 37.2027556,259.227709 L37.2027556,184.689383 C37.2027556,180.806468 40.3623235,177.647287 44.245714,177.647287 L84.7860524,177.647287 C104.86958,177.647287 122.842025,189.623006 130.573516,208.157025 L161.180311,281.52938 L86.9881042,281.52938 C78.9272457,267.647488 63.8524445,258.278936 46.6085281,258.278936 Z M265.182559,281.52938 L286.367113,230.743328 C291.70207,217.953702 304.10508,209.689961 317.964361,209.689961 L347.271726,209.689961 C349.180484,209.689961 350.733997,211.2425 350.733997,213.151809 L350.733997,257.893937 C348.340599,257.515996 345.88917,257.313696 343.390688,257.313696 C325.748394,257.313696 310.3654,267.115077 302.452757,281.530164 L265.182559,281.530164 L265.182559,281.52938 Z M343.389903,338.272319 C324.17606,338.272319 308.543688,322.751636 308.543688,303.673444 C308.543688,284.595252 324.175276,269.074569 343.389903,269.074569 C362.604531,269.074569 378.236119,284.595252 378.236119,303.673444 C378.236119,322.751636 362.604531,338.272319 343.389903,338.272319 Z"/>
      <path d="M343 283C331.971657 283 323 291.972357 323 303 323 314.027643 331.972435 323 343 323 354.028343 323 363 314.027643 363 303 363 291.972357 354.028343 283 343 283zM343 311.287521C338.402978 311.287521 334.663621 307.569733 334.663621 303.000781 334.663621 298.431829 338.403756 294.71404 343 294.71404 347.596244 294.71404 351.336379 298.431829 351.336379 303.000781 351.336379 307.569733 347.597022 311.287521 343 311.287521zM47 284C35.9716574 284 27 292.972182 27 304.00039 27 315.027818 35.972435 324 47 324 58.0283426 324 67 315.028599 67 304.00039 67.0007776 292.971401 58.0283426 284 47 284zM47 312.286188C42.4029781 312.286188 38.6636212 308.569253 38.6636212 303.99961 38.6636212 299.429966 42.4037557 295.71225 47 295.71225 51.5970219 295.71225 55.336379 299.429966 55.336379 303.99961 55.3371564 308.569253 51.5970219 312.286188 47 312.286188z"/>
    </g>
  </g>
</svg>
