<svg xmlns="http://www.w3.org/2000/svg" width="480" height="480" viewBox="0 0 480 480">
  <g fill="none" fill-rule="evenodd">
    <g stroke="#FF5DCF" opacity="0">
      <circle cx="240" cy="240" r="200"/>
      <rect width="280" height="280" x="100" y="100"/>
      <line x2="480" y2="480" stroke-linecap="square"/>
      <line x2="480" y2="480" stroke-linecap="square" transform="matrix(-1 0 0 1 480 0)"/>
    </g>
    <path fill="#C2EDFF" fill-rule="nonzero" d="M93.5252462 238.069626L93.5252462 219.730174 142.367351 219.730174C145.739195 219.730174 148.472615 216.993223 148.472615 213.617023 148.472615 210.240824 145.739195 207.503872 142.367351 207.503872L93.5252462 207.503872 93.5252462 195.277571C93.5252462 191.901372 96.2586659 189.164421 99.6305094 189.164421L294.99893 189.164421C298.370774 189.164421 301.104194 191.901372 301.104194 195.277571L301.104194 207.503872 172.893667 207.503872C169.521824 207.503872 166.788404 210.240824 166.788404 213.617023 166.788404 216.993223 169.521824 219.730174 172.893667 219.730174L301.104194 219.730174 301.104194 238.069626C301.104194 241.445825 298.370774 244.182776 294.99893 244.182776L99.6305094 244.182776C96.2586659 244.182776 93.5252462 241.445825 93.5252462 238.069626zM226.317138 21.7339755C225.183539 23.4339924 223.275941 24.4548492 221.23342 24.4545436L12.8742734 24.4545436C11.7905498 21.2925148 10.4180985 18.2370602 8.77430306 15.3268851L-7.10542736e-14-4.4408921e-14 240.798405-4.4408921e-14 226.317138 21.7339755z" transform="translate(99.685 168.59)"/>
    <g fill="#00599A" fill-rule="nonzero" transform="translate(48 82.882)">
      <path d="M365,42.9131184 C365,36.1601826 359.528706,30.6858466 352.779522,30.6858466 L338.860398,30.6858466 C336.694852,26.915254 332.684943,24.5853245 328.338567,24.5722107 L328.338567,12.344939 C328.338567,5.59200326 322.867272,0.117657113 316.118089,0.117657113 L299.620444,0.117657113 C297.206125,0.114554537 294.845367,0.829559903 292.838079,2.17184889 L259.292867,24.5722107 L53.3778163,24.5722107 C45.9413805,24.6060851 39.2560701,29.1144846 36.4341238,35.9985962 C29.1055369,38.4397062 21.3164929,39.1736677 13.6612634,38.1444824 C9.37697442,37.7083583 5.17015633,39.5103024 2.52840817,42.9131184 C-0.0230239996,46.1760021 -0.696405382,50.5311038 0.750328652,54.4128674 C6.45286277,68.8604045 19.0408254,79.4653569 34.240548,82.627297 C34.995827,83.138301 35.7883017,83.5919792 36.6113207,83.9845242 L49.8338777,107.106295 C55.6585048,117.343262 57.023799,129.525009 53.6100053,140.798542 L21.7817709,245.43342 C20.0893843,250.993626 21.1312371,257.027365 24.590043,261.697118 C28.0488488,266.366872 33.5151613,269.117647 39.3242668,269.117647 L95.3490473,269.117647 C110.525833,269.052981 123.37747,257.901254 125.58862,242.877921 L133.318072,188.772243 C133.749048,185.766248 136.319914,183.532413 139.354988,183.526743 L212.244028,183.526743 C235.855003,183.499791 254.988762,164.355394 255.0157,140.731292 L255.0157,122.390385 L272.9187,122.390385 C279.056081,122.398123 284.790098,119.332161 288.194297,114.222567 L307.166589,85.7085695 L328.338567,85.7085695 C332.684943,85.6954557 336.694852,83.3655265 338.860398,79.5949336 L352.779522,79.5949336 C359.528706,79.5949336 365,74.1205976 365,67.3676619 L365,42.9131184 Z M299.620444,12.344939 L316.118089,12.344939 L316.118089,24.5722107 L281.289727,24.5722107 L299.620444,12.344939 Z M12.4392157,50.3045041 C18.6831359,51.016254 24.9942662,50.8867124 31.2037593,49.9193451 L27.0732378,60.9238896 C26.4869347,62.5716044 26.139203,64.2947596 26.0406074,66.0410029 C19.7786362,62.5833713 14.9555495,57.0031706 12.4392157,50.3045041 Z M113.484236,241.147762 C112.162977,250.163562 104.45002,256.856693 95.342937,256.890374 L39.3242668,256.890374 C37.3880056,256.890374 35.5667205,255.970555 34.4150112,254.413195 C33.263302,252.855836 32.91749,250.844462 33.4828784,248.991556 L65.3111128,144.356678 C67.4604083,137.246284 68.150437,129.774443 67.3397121,122.390385 L130.46459,122.390385 L121.25646,186.821993 C121.25646,186.895357 121.213688,186.956493 121.207578,187.029857 L113.484236,241.147762 Z M242.795222,140.731292 C242.775021,157.605253 229.108612,171.279259 212.244028,171.299472 L139.354988,171.299472 C138.149882,171.307742 136.948518,171.434704 135.768278,171.678517 L142.813383,122.390385 L154.538931,122.390385 C152.339709,126.091253 151.166963,130.312109 151.141639,134.617656 C151.141639,148.123528 162.084227,159.0722 175.582594,159.0722 L206.133789,159.0722 C219.632156,159.0722 230.574744,148.123528 230.574744,134.617656 C230.54942,130.312109 229.376674,126.091253 227.177451,122.390385 L242.795222,122.390385 L242.795222,140.731292 Z M218.354266,134.617656 C218.354266,141.370592 212.882972,146.844928 206.133789,146.844928 L175.582594,146.844928 C168.833411,146.844928 163.362116,141.370592 163.362116,134.617656 C163.362116,127.864721 168.833411,122.390385 175.582594,122.390385 L206.133789,122.390385 C212.882972,122.390385 218.354266,127.864721 218.354266,134.617656 Z M278.002419,107.442545 C276.868819,109.142562 274.961221,110.163419 272.9187,110.163113 L64.5595534,110.163113 C63.4758299,107.001084 62.1033786,103.94563 60.4595832,101.035455 L51.6852801,85.7085695 L292.483685,85.7085695 L278.002419,107.442545 Z M144.27984,73.481299 L150.707812,57.408549 C151.517696,55.3794349 151.184143,53.0721475 149.832797,51.3558196 C148.481452,49.6394917 146.317616,48.7748744 144.156385,49.0876607 C141.995155,49.4004469 140.164872,50.843117 139.354988,52.8722312 L131.118386,73.481299 L119.838885,73.481299 L126.266856,57.408549 C127.076741,55.3794349 126.743188,53.0721475 125.391842,51.3558196 C124.040496,49.6394917 121.87666,48.7748744 119.71543,49.0876607 C117.5542,49.4004469 115.723917,50.843117 114.914032,52.8722312 L106.67743,73.481299 L95.3979292,73.481299 L101.8259,57.408549 C103.077874,54.2718104 101.551383,50.7134919 98.4163872,49.4608224 C95.2813916,48.2081528 91.7250499,49.7354926 90.4730766,52.8722312 L82.2364746,73.481299 L70.9569736,73.481299 L77.3849449,57.408549 C78.6369182,54.2718104 77.1104271,50.713492 73.9754316,49.4608224 C70.840436,48.2081529 67.2840943,49.7354926 66.032121,52.8722312 L57.795519,73.481299 L44.2124579,73.481299 C42.2078933,73.4825504 40.3302087,72.4999455 39.1877958,70.8518584 C38.0453831,69.2037707 37.7835613,67.0998449 38.4871641,65.2217757 L47.6525224,40.7672322 C48.5558062,38.3861399 50.8324001,36.8084121 53.3778163,36.7994825 L328.338567,36.7994825 L328.338567,73.481299 L144.27984,73.481299 Z M352.779522,67.3676619 L340.559044,67.3676619 L340.559044,42.9131184 L352.779522,42.9131184 L352.779522,67.3676619 Z"/>
      <path d="M89.9323487 232.840382L64.1387633 232.840382 78.8042764 184.044394C79.4350955 181.945576 78.9112375 179.665714 77.4300347 178.063609 75.9488318 176.461504 73.7353144 175.780554 71.6232924 176.277267 69.5112704 176.77398 67.821611 178.372892 67.1907919 180.47171L52.5252788 229.267698C51.4064467 232.989122 52.096927 237.026789 54.3865349 240.15162 56.6761429 243.27645 60.2939803 245.118724 64.1387633 245.117647L89.9323487 245.117647C93.2834197 245.117647 96 242.369287 96 238.979014 96 235.588742 93.2834197 232.840382 89.9323487 232.840382zM365 323.778195L365 280.986141C365 270.857541 356.799741 262.646689 346.684211 262.646689L346.684211 239.661242C346.727047 225.346029 341.045915 211.609161 330.908211 201.515182 326.03036 196.985135 318.489851 196.985135 313.612 201.515182 309.738225 205.396329 306.479112 209.847065 303.947368 214.713475 301.410925 209.848423 298.150037 205.398073 294.276632 201.515182 289.398781 196.985135 281.858272 196.985135 276.980421 201.515182 273.106646 205.396329 269.847533 209.847065 267.315789 214.713475 264.779346 209.848423 261.518458 205.398073 257.645053 201.515182 252.767202 196.985135 245.226693 196.985135 240.348842 201.515182 236.475067 205.396329 233.215954 209.847065 230.684211 214.713475 228.147767 209.848423 224.886879 205.398073 221.013474 201.515182 216.135623 196.985135 208.595114 196.985135 203.717263 201.515182 199.843488 205.396329 196.584375 209.847065 194.052632 214.713475 191.516188 209.848423 188.2553 205.398073 184.381895 201.515182 179.504044 196.985135 171.963535 196.985135 167.085684 201.515182 156.949643 211.609783 151.270656 225.346778 151.315789 239.661242L151.315789 262.646689C141.200259 262.646689 133 270.857541 133 280.986141L133 323.778195C133 333.906794 141.200259 342.117647 151.315789 342.117647L346.684211 342.117647C356.799741 342.117647 365 333.906794 365 323.778195zM322.263158 210.177517C330.102149 217.978422 334.498939 228.594981 334.473792 239.661242L334.473792 262.646689 310.052632 262.646689 310.052632 239.661242C310.014398 228.592413 314.413183 217.97104 322.263158 210.177517zM285.631579 210.177517C293.47057 217.978422 297.86736 228.594981 297.842213 239.661242L297.842213 262.646689 273.421053 262.646689 273.421053 239.661242C273.382819 228.592413 277.781604 217.97104 285.631579 210.177517zM249 210.177517C256.838991 217.978422 261.235781 228.594981 261.210635 239.661242L261.210635 262.646689 236.789474 262.646689 236.789474 239.661242C236.75124 228.592413 241.150025 217.97104 249 210.177517zM212.368421 210.177517C220.207412 217.978422 224.604202 228.594981 224.579056 239.661242L224.579056 262.646689 200.157895 262.646689 200.157895 239.661242C200.119661 228.592413 204.518446 217.97104 212.368421 210.177517zM163.526316 239.661242C163.488082 228.592413 167.886867 217.97104 175.736842 210.177517 183.575833 217.978422 187.972623 228.594981 187.947477 239.661242L187.947477 262.646689 163.526316 262.646689 163.526316 239.661242zM145.210526 323.778195L145.210526 305.438743 194.052632 305.438743C197.424475 305.438743 200.157895 302.701792 200.157895 299.325593 200.157895 295.949393 197.424475 293.212442 194.052632 293.212442L145.210526 293.212442 145.210526 280.986141C145.210526 277.609941 147.943946 274.87299 151.315789 274.87299L346.684211 274.87299C350.056054 274.87299 352.789474 277.609941 352.789474 280.986141L352.789474 293.212442 224.578947 293.212442C221.207104 293.212442 218.473684 295.949393 218.473684 299.325593 218.473684 302.701792 221.207104 305.438743 224.578947 305.438743L352.789474 305.438743 352.789474 323.778195C352.789474 327.154395 350.056054 329.891346 346.684211 329.891346L151.315789 329.891346C147.943946 329.891346 145.210526 327.154395 145.210526 323.778195z"/>
    </g>
  </g>
</svg>
