<svg xmlns="http://www.w3.org/2000/svg" width="480" height="480" viewBox="0 0 480 480">
  <g fill="none" fill-rule="evenodd">
    <g stroke="#FF5DCF" opacity="0">
      <circle cx="240" cy="240" r="200"/>
      <rect width="280" height="280" x="100" y="100"/>
      <line x2="480" y2="480" stroke-linecap="square"/>
      <line x2="480" y2="480" stroke-linecap="square" transform="matrix(-1 0 0 1 480 0)"/>
    </g>
    <g fill="#00599A" fill-rule="nonzero" transform="translate(56 44.47)">
      <path d="M359.423466,102.830935 L330.862632,102.830935 C328.805619,82.2542787 311.716587,66.4260813 290.988226,66.4260813 L188.216691,66.4260813 L243.518694,8.49487911 C245.33836,6.59549544 245.259244,3.66727893 243.360463,1.84703624 C241.461681,0.0267935451 238.455278,0.105934532 236.635612,2.00531821 L175.320801,66.4260813 L148.263169,16.9629647 C146.997315,14.6678761 144.149143,13.7973252 141.854782,15.063581 C139.560421,16.3298368 138.690147,19.0997713 139.956001,21.3948599 L164.561041,66.4260813 L91.8535427,66.4260813 C71.1251807,66.4260813 54.0361496,82.2542787 51.9791365,102.830935 L23.4974179,102.830935 C10.5224127,102.830935 0,113.119263 0,126.098385 L0,346.822597 C0,359.801719 10.5224127,370.32747 23.4974179,370.32747 L43.5137368,370.32747 L43.5137368,383.93972 C43.5137368,386.551372 45.6498657,388.529897 48.3398058,388.529897 L334.660194,388.529897 C337.271018,388.529897 339.486263,386.551372 339.486263,383.93972 L339.486263,370.32747 L359.502582,370.32747 C372.477587,370.32747 383,359.801719 383,346.822597 L383,126.098385 C382.920884,113.119263 372.398471,102.830935 359.423466,102.830935 Z M91.8535427,75.9229997 L290.988226,75.9229997 C306.415823,75.9229997 319.232597,87.7941477 321.28961,102.830935 L61.6312745,102.830935 C63.6091717,87.7941477 76.4259451,75.9229997 91.8535427,75.9229997 Z M329.913241,379.032979 L53.007643,379.032979 L53.007643,370.32747 L329.913241,370.32747 L329.913241,379.032979 Z M373.426978,346.822597 C373.426978,354.578414 367.176823,360.830552 359.423466,360.830552 L23.4974179,360.830552 C15.7440611,360.830552 9.49390622,354.578414 9.49390622,346.822597 L9.49390622,126.335808 C9.49390622,118.579992 15.7440611,112.327854 23.4974179,112.327854 L359.423466,112.327854 C367.176823,112.327854 373.426978,118.579992 373.426978,126.335808 L373.426978,346.822597 Z"/>
      <path d="M94.4656669 147.800458C92.545231 145.993766 89.5045408 146.15087 87.664123 148.036113L44.2942786 193.596164C42.4538609 195.481407 42.6138972 198.466376 44.5343331 200.273068 45.4945511 201.137138 46.6148054 201.529897 47.8150778 201.529897 49.0953684 201.529897 50.375659 201.058586 51.335877 200.037412L94.7057214 154.477362C96.5461391 152.592118 96.3861028 149.607149 94.4656669 147.800458L94.4656669 147.800458zM83.9 175.903267L64.38 195.329485C62.54 197.160645 62.54 200.18604 64.38 202.096815 65.34 203.052203 66.54 203.529897 67.74 203.529897 68.94 203.529897 70.22 203.052203 71.1 202.096815L90.62 182.670597C92.46 180.839437 92.46 177.814042 90.62 175.903267 88.78 174.072107 85.74 174.072107 83.9 175.903267L83.9 175.903267zM356.272727 262.278494C355.87991 262.514184 355.565657 262.985565 355.251403 262.985565L336.631874 262.985565C334.039282 262.985565 331.91807 265.106777 331.91807 267.699369 331.91807 270.291962 334.039282 272.413174 336.631874 272.413174L357.215488 272.413174C358.079686 274.770076 358.786756 277.126979 359.10101 278.698247L348.96633 278.698247C346.373737 278.698247 344.252525 280.819459 344.252525 283.412052 344.252525 286.004644 346.373737 288.125857 348.96633 288.125857L359.10101 288.125857C358.708193 290.482759 358.079686 292.054027 357.136925 294.410929L336.553311 294.410929C333.960718 294.410929 331.839506 296.532142 331.839506 299.124734 331.839506 301.717327 333.960718 303.838539 336.553311 303.838539L349.594837 303.838539C345.27385 306.981075 339.852974 309.259414 333.960718 309.259414 328.068462 309.259414 322.647587 306.981075 318.326599 303.838539L320.290685 303.838539C322.883277 303.838539 325.004489 301.717327 325.004489 299.124734 325.004489 296.532142 322.883277 294.410929 320.290685 294.410929L310.784512 294.410929C309.920314 292.054027 309.213244 290.482759 308.820426 288.125857L332.782267 288.125857C335.37486 288.125857 337.496072 286.004644 337.496072 283.412052 337.496072 280.819459 335.37486 278.698247 332.782267 278.698247L308.820426 278.698247C309.213244 276.341345 309.841751 274.770076 310.784512 272.413174L320.290685 272.413174C322.883277 272.413174 325.004489 270.291962 325.004489 267.699369 325.004489 265.106777 322.883277 262.985565 320.290685 262.985565L318.326599 262.985565C322.647587 259.843028 328.068462 257.80038 333.960718 257.80038 336.553311 257.80038 338.674523 255.757731 338.674523 253.165138 338.674523 250.572546 336.553311 248.529897 333.960718 248.529897 321.312009 248.529897 310.156004 255.28635 304.028058 265.42103 303.870932 265.578157 303.792368 265.813848 303.713805 265.970974 300.728395 271.15616 299 277.126979 299 283.490615 299 289.854252 300.728395 295.825071 303.713805 301.010256 303.792368 301.245946 303.949495 301.403073 304.028058 301.638763 310.156004 311.773443 321.312009 318.529897 333.960718 318.529897 346.609428 318.529897 357.765432 311.773443 363.893378 301.638763 364.050505 301.403073 364.129068 301.245946 364.286195 301.010256 367.271605 295.825071 369 289.854252 369 283.490615 369 276.341345 366.878788 269.427764 362.79349 263.614072 361.300786 261.49286 358.393939 260.785789 356.272727 262.278494L356.272727 262.278494z"/>
      <path d="M343.657784 253.877909C342.309976 256.158887 343.102804 258.990447 345.402007 260.327573 346.115552 260.720845 346.829098 261.192771 347.463361 261.664698 348.335472 262.293934 349.286866 262.529897 350.23826 262.529897 351.744634 262.529897 353.171726 261.822007 354.12312 260.563536 355.629494 258.439866 355.153797 255.529652 353.01316 253.956563 352.061766 253.327328 351.110372 252.698092 350.158977 252.147511 347.859775 250.88904 345.005593 251.59693 343.657784 253.877909zM333.5 193.529897C342.586957 193.529897 350 186.116853 350 177.029897 350 167.94294 342.586957 160.529897 333.5 160.529897 324.413043 160.529897 317 167.94294 317 177.029897 317 186.116853 324.413043 193.529897 333.5 193.529897zM333.5 170.095114C337.326087 170.095114 340.434783 173.20381 340.434783 177.029897 340.434783 180.855984 337.326087 183.96468 333.5 183.96468 329.673913 183.96468 326.565217 180.855984 326.565217 177.029897 326.565217 173.20381 329.673913 170.095114 333.5 170.095114zM333.5 232.529897C342.586957 232.529897 350 225.116853 350 216.029897 350 206.94294 342.586957 199.529897 333.5 199.529897 324.413043 199.529897 317 206.94294 317 216.029897 317 225.116853 324.413043 232.529897 333.5 232.529897zM333.5 209.095114C337.326087 209.095114 340.434783 212.20381 340.434783 216.029897 340.434783 219.855984 337.326087 222.96468 333.5 222.96468 329.673913 222.96468 326.565217 219.855984 326.565217 216.029897 326.565217 212.20381 329.673913 209.095114 333.5 209.095114zM269.771171 130.529897L52.2288288 130.529897C39.3855856 130.529897 29 140.911029 29 153.748765L29 183.624237C29 186.239331 31.1405405 188.378954 33.7567568 188.378954 36.372973 188.378954 38.5135135 186.239331 38.5135135 183.624237L38.5135135 153.748765C38.5135135 146.220463 44.618018 140.039331 52.2288288 140.039331L269.771171 140.039331C277.381982 140.039331 283.565766 146.220463 283.565766 153.82801L283.565766 316.756312C283.565766 324.601595 277.144144 331.099708 269.216216 331.099708L239.882883 331.099708 239.882883 294.409142C239.882883 294.250652 239.962162 294.171406 239.962162 294.012916 239.724324 291.08084 239.169369 288.22801 238.218018 285.53367 234.888288 276.103482 227.118919 268.416689 217.288288 265.167633L184.387387 253.914803 184.387387 250.982727C189.936937 245.435557 193.345946 237.907255 193.583784 229.507255 197.30991 228.160086 199.926126 224.514803 199.926126 220.235557 199.926126 217.620463 198.816216 215.243104 197.151351 213.499708 200.63964 202.246878 200.163964 190.201595 195.803604 179.186501L195.010811 177.046878C195.803604 175.144991 196.279279 173.163859 196.279279 170.944991L196.279279 167.537444C196.279279 165.952538 195.407207 164.446878 194.138739 163.57518 192.790991 162.703482 191.126126 162.544991 189.699099 163.099708 183.436036 165.635557 165.043243 164.843104 149.583784 162.861972 148.236036 162.703482 146.888288 162.782727 145.61982 163.020463 140.387387 164.209142 136.81982 168.805369 136.81982 174.194048 136.81982 175.303482 135.947748 176.17518 134.837838 176.17518 130.556757 176.17518 126.830631 178.711029 125.245045 182.673293L125.007207 183.307255C121.201802 192.97518 121.201802 203.594048 125.007207 213.182727L125.403604 214.212916C124.135135 215.877067 123.342342 217.937444 123.342342 220.235557 123.342342 224.435557 125.879279 228.08084 129.605405 229.507255 129.843243 237.273293 132.935135 244.405369 137.691892 249.794048L137.691892 253.914803 104.790991 265.088387C94.009009 268.73367 85.9225225 277.212916 82.9891892 287.831784 82.4342342 289.812916 82.1963964 291.873293 82.0378378 293.93367 82.0378378 294.092161 82.1171171 294.171406 82.1171171 294.329897L82.1171171 331.020463 52.2288288 331.020463C44.618018 331.020463 38.5135135 324.839331 38.5135135 317.311029L38.5135135 215.32235C38.5135135 212.707255 36.372973 210.567633 33.7567568 210.567633 31.1405405 210.567633 29 212.707255 29 215.32235L29 317.311029C29 330.148765 39.3855856 340.529897 52.2288288 340.529897L269.691892 340.529897C282.535135 340.529897 293 330.06952 293 317.231784L293 153.748765C293 140.911029 282.614414 130.529897 269.771171 130.529897L269.771171 130.529897zM104.315315 331.020463L91.6306306 331.020463 91.6306306 294.567633C91.6306306 293.141218 91.9477477 291.714803 92.3441441 290.367633 93.4540541 286.405369 95.6738739 282.918576 98.5279279 280.065746 102.174775 285.53367 104.315315 291.952538 104.315315 298.609142L104.315315 331.020463zM113.828829 331.020463L113.828829 298.529897C113.828829 289.971406 111.054054 281.729897 106.376577 274.677067 106.931532 274.439331 107.407207 274.201595 108.041441 274.043104L131.825225 265.960086 120.963964 278.48084C119.536937 280.144991 119.378378 282.52235 120.567568 284.265746L124.769369 290.446878 119.536937 294.884614C117.792793 296.311029 117.317117 298.767633 118.427027 300.82801L134.758559 331.099708 113.828829 331.099708 113.828829 331.020463zM137.612613 316.835557L128.416216 299.560086 134.045045 294.884614C135.947748 293.299708 136.344144 290.605369 134.996396 288.544991L130.23964 281.809142 137.454054 273.329897 137.454054 316.835557 137.612613 316.835557zM189.699099 193.767633C187.875676 191.152538 185.418018 188.854425 182.167568 186.873293 184.14955 186.635557 186.052252 186.001595 187.796396 185.050652 188.747748 187.903482 189.381982 190.835557 189.699099 193.767633zM133.727928 186.794048L133.965766 186.160086C134.124324 185.843104 134.362162 185.684614 134.679279 185.684614 141.021622 185.684614 146.174775 180.53367 146.174775 174.194048 146.174775 173.32235 146.809009 172.529897 147.681081 172.292161 147.76036 172.292161 147.918919 172.212916 148.236036 172.292161 150.614414 172.609142 159.018018 173.560086 168.055856 173.956312 175.508108 174.273293 181.454054 174.194048 186.052252 173.560086 185.021622 175.858199 182.722523 177.443104 180.027027 177.443104 177.410811 177.443104 175.27027 179.582727 175.27027 182.197821 175.27027 183.148765 175.587387 184.020463 176.063063 184.73367 175.825225 184.812916 175.508108 184.892161 175.27027 184.971406 173.922523 185.526123 172.971171 186.714803 172.574775 188.141218 171.464865 192.341218 163.616216 192.816689 160.207207 192.816689 153.230631 192.816689 149.187387 191.46952 148.156757 188.93367L148.156757 188.854425C147.601802 187.507255 146.491892 186.477067 145.144144 186.08084 143.796396 185.684614 142.29009 185.92235 141.021622 186.714803 137.374775 189.250652 133.727928 192.341218 131.587387 196.937444 131.745946 193.609142 132.459459 190.12235 133.727928 186.794048zM174.873874 331.020463L147.126126 331.020463 147.126126 278.243104C151.882883 279.986501 156.401802 280.858199 161 280.858199 165.598198 280.858199 170.117117 279.986501 174.873874 278.243104L174.873874 331.020463zM174.873874 267.703482C166.153153 272.616689 155.846847 272.616689 147.126126 267.703482L147.126126 256.926123C151.882883 259.065746 156.481081 260.254425 161.554955 260.254425 166.153153 260.254425 170.90991 259.224237 174.873874 257.48084L174.873874 267.703482zM183.594595 228.397821C183.594595 240.760086 173.763964 250.744991 161.396396 250.744991 149.028829 250.744991 139.198198 240.68084 139.198198 228.397821L139.198198 225.307255C139.198198 222.692161 137.057658 220.86952 134.441441 220.86952L133.093694 220.86952C132.935135 220.86952 132.776577 220.631784 132.776577 220.473293 132.776577 220.314803 132.935135 220.077067 133.093694 220.077067L134.441441 220.077067C137.057658 220.077067 139.198198 217.778954 139.198198 215.163859L139.198198 206.050652C139.198198 202.563859 140.14955 200.107255 142.845045 197.492161 148.315315 202.405369 156.956757 202.405369 160.286486 202.405369 170.592793 202.405369 175.904505 199.394048 178.758559 196.065746 182.246847 198.760086 183.594595 201.850652 183.594595 205.971406L183.594595 215.084614C183.594595 217.699708 186.052252 219.997821 188.668468 219.997821L190.016216 219.997821C190.174775 219.997821 190.333333 220.235557 190.333333 220.394048 190.333333 220.552538 190.174775 220.790274 190.016216 220.790274L188.668468 220.790274C186.052252 220.790274 183.594595 222.612916 183.594595 225.22801L183.594595 228.397821zM184.387387 273.409142L191.601802 281.888387 186.924324 288.624237C185.576577 290.605369 185.893694 293.378954 187.717117 294.963859L193.425225 299.639331 184.387387 316.756312 184.387387 273.409142zM208.963964 298.529897L208.963964 331.020463 187.241441 331.020463 203.572973 300.82801C204.682883 298.846878 204.207207 296.311029 202.463063 294.884614L197.230631 290.446878 201.432432 284.265746C202.621622 282.52235 202.463063 280.144991 201.115315 278.48084L190.174775 266.039331 214.037838 274.12235C214.672072 274.360086 215.385586 274.597821 216.01982 274.835557 211.421622 281.809142 208.963964 290.050652 208.963964 298.529897L208.963964 298.529897zM230.369369 331.020463L218.477477 331.020463 218.477477 298.529897C218.477477 291.952538 220.300901 285.612916 223.947748 280.144991 226.326126 282.52235 228.07027 285.454425 229.18018 288.624237 229.893694 290.526123 230.369369 292.507255 230.369369 294.567633L230.369369 331.020463z"/>
    </g>
    <g fill="#C2EDFF" fill-rule="nonzero" transform="translate(109.008 120.393)">
      <path d="M121.866231 255.097463L94.1184831 255.097463 94.1184831 202.320105C98.8752398 204.063501 103.394159 204.935199 107.992357 204.935199 112.590555 204.935199 117.109474 204.063501 121.866231 202.320105L121.866231 255.097463zM38.8458996-7.10542736e-15L237.980583-7.10542736e-15C253.40818-7.10542736e-15 266.224954 11.871148 268.281967 26.9079355L8.62363148 26.9079355C10.6015286 11.871148 23.418302-7.10542736e-15 38.8458996-7.10542736e-15z"/>
      <polygon points="276.906 303.11 0 303.11 0 294.404 276.906 294.404"/>
      <path d="M280.492357 94.1721146C284.318444 94.1721146 287.42714 97.2808102 287.42714 101.106897 287.42714 104.932984 284.318444 108.04168 280.492357 108.04168 276.66627 108.04168 273.557574 104.932984 273.557574 101.106897 273.557574 97.2808102 276.66627 94.1721146 280.492357 94.1721146zM280.492357 133.172115C284.318444 133.172115 287.42714 136.28081 287.42714 140.106897 287.42714 143.932984 284.318444 147.04168 280.492357 147.04168 276.66627 147.04168 273.557574 143.932984 273.557574 140.106897 273.557574 136.28081 276.66627 133.172115 280.492357 133.172115z"/>
    </g>
  </g>
</svg>
