<svg xmlns="http://www.w3.org/2000/svg" width="480" height="480" viewBox="0 0 480 480">
  <g fill="none" fill-rule="evenodd">
    <g stroke="#FF5DCF" opacity="0">
      <circle cx="240" cy="240" r="200"/>
      <rect width="280" height="280" x="100" y="100"/>
      <line x2="480" y2="480" stroke-linecap="square"/>
      <line x2="480" y2="480" stroke-linecap="square" transform="matrix(-1 0 0 1 480 0)"/>
    </g>
    <g fill-rule="nonzero" transform="translate(25 96)">
      <path fill="#00599A" d="M428.846488,27.1237508 C423.735112,12.0916255 410.511365,1.78891649 394.336287,0.234363235 C392.719201,0.0784020893 391.049081,0 389.373068,0 C372.479098,0 349.865977,11.3396398 323.682806,24.4698822 C317.506561,27.5671862 311.179635,30.7386772 304.747484,33.855371 C298.554404,31.1273155 270.4511,20.2715768 215.499608,20.2715768 C160.548116,20.2715768 132.446496,31.1273155 126.252574,33.855371 C119.820423,30.7378342 113.494339,27.5663432 107.317252,24.4698822 C81.1349233,11.3396398 58.5218023,0 41.627832,0 C39.9518195,0 38.2816996,0.0784020893 36.6646127,0.234363235 C20.4895347,1.78807346 7.26494582,12.0916255 2.15357067,27.1237508 C-2.93170885,42.076631 1.13920851,58.1389429 12.7770151,69.0418915 L30.1996322,85.3647007 C26.4932118,92.8634812 25.9662486,101.647887 28.7618475,110.483718 C31.8200863,120.149094 38.5510737,128.770795 47.7165304,134.760546 C55.7548244,140.014329 64.6677427,142.555231 73.1084144,142.555231 C84.9558278,142.555231 95.8696912,137.542556 102.096444,127.986774 C112.758611,111.623499 105.714476,88.037116 86.3927707,75.4093214 C77.227314,69.4187273 66.635016,66.7184919 56.5713649,67.8085339 C49.375707,68.5866536 43.0285778,71.2160742 38.0375792,75.3924607 L21.4028815,59.8073056 C13.4395072,52.3464616 10.6430664,41.3845007 14.1062083,31.1998164 C17.6484788,20.7816119 26.5327761,13.9108911 37.8709039,12.8208492 C39.0889803,12.7036676 40.3525136,12.6446552 41.6269902,12.6446552 C55.5359579,12.6446552 77.9419974,23.880602 101.663762,35.7758007 C108.132951,39.0197925 114.760398,42.3421864 121.508221,45.6064111 C122.76502,141.183616 156.483092,202.856554 171.137889,225.196092 C172.762552,227.672923 172.638808,230.95991 170.829792,233.374357 L168.347341,236.689163 C159.620459,248.342412 156.809708,263.08622 160.637347,277.140426 L172.957848,322.382647 C175.302246,330.98833 183.160396,337 192.068263,337 L238.928428,337 C247.836295,337 255.694446,330.98833 258.038843,322.381804 L270.359344,277.139583 C274.186983,263.085377 271.376232,248.341569 262.64935,236.68832 L260.166899,233.373514 C258.357883,230.958224 258.234139,227.671237 259.859644,225.195248 C271.011735,208.194641 297.896962,160.811959 306.674352,88.1720013 C307.093565,84.7054487 304.626266,81.5558766 301.164808,81.136046 C297.707559,80.7136864 294.558406,83.1871459 294.139192,86.6536985 C285.683368,156.635572 259.969077,201.997503 249.306068,218.25287 C244.767955,225.169114 245.072685,234.295792 250.065367,240.960813 L252.547818,244.275619 C258.921043,252.784354 260.972496,263.551574 258.177739,273.813817 L245.857237,319.055195 C245.299127,321.103766 243.876495,322.742622 242.053168,323.629493 L242.053168,283.376343 C242.053168,270.890178 233.415517,260.392728 221.811382,257.547491 L221.811382,214.601693 C233.415517,211.756456 242.053168,201.258163 242.053168,188.772841 L242.053168,161.291644 C242.053168,155.789167 244.285607,150.454452 248.17638,146.654059 C257.280386,137.764273 262.294955,125.866546 262.294955,113.152762 L262.294955,65.2288522 C273.931078,61.4824126 285.461976,56.7411938 296.730235,51.6079645 C296.648581,54.4430853 296.543357,57.2689326 296.402777,60.0661168 C296.227684,63.5537452 298.908799,66.5229082 302.391302,66.6982591 C305.863704,66.871924 308.838605,64.1885493 309.01454,60.7009208 C309.264553,55.7219666 309.42281,50.6654534 309.489312,45.6064111 C316.237977,42.3421864 322.865424,39.0197925 329.333771,35.7766437 C353.055535,23.881445 375.461575,12.6454983 389.370543,12.6454983 C390.645861,12.6454983 391.909394,12.7045106 393.127471,12.8216922 C404.465599,13.9108911 413.349054,20.7807688 416.892166,31.2006594 C420.355308,41.3853437 417.558868,52.3464616 409.595493,59.8081487 L392.959954,75.3933038 C387.969797,71.2160742 381.622668,68.5874966 374.426168,67.8093769 C364.359991,66.7184919 353.769377,69.4204134 344.604762,75.4101644 C325.283057,88.037959 318.23808,111.623499 328.901089,127.987617 C335.128684,137.543399 346.040022,142.556074 357.889118,142.556074 C366.328107,142.556074 375.24355,140.013486 383.281003,134.761389 C392.445617,128.771638 399.177447,120.149937 402.235685,110.484561 C405.032126,101.647887 404.504321,92.8634812 400.797901,85.3655437 L418.220518,69.0427345 C429.86085,58.1380998 433.931767,42.0757879 428.846488,27.1237508 Z M87.3650431,92.9191213 C94.7964034,101.681609 96.8276531,112.935259 91.5243489,121.075588 C84.6662505,131.599171 68.1106815,132.98849 54.6192438,124.170363 C52.2622197,122.630141 50.1350055,120.8623 48.2636967,118.92501 C53.1570471,103.740296 71.4635483,91.4741624 87.3650431,92.9191213 Z M42.5874775,89.0942796 C45.7770362,84.1979427 51.2242873,81.1040108 57.9274955,80.3798453 C58.9418577,80.2702509 59.9646378,80.2162968 60.9941523,80.2162968 C64.511169,80.2162968 68.0913202,80.8721767 71.5822413,82.099633 C58.9014516,85.803921 47.2931078,94.5242566 40.5217143,105.711307 C38.8372838,99.6144912 39.5553344,93.7452939 42.5874775,89.0942796 Z M229.430463,283.376343 L229.430463,324.356188 L201.571279,324.356188 L201.571279,283.376343 C201.571279,275.684508 207.819077,269.426672 215.50045,269.426672 C223.180981,269.426672 229.430463,275.684508 229.430463,283.376343 Z M239.365319,137.599882 C233.05102,143.765827 229.429621,152.401016 229.429621,161.290801 L229.429621,188.771998 C229.429621,196.463833 223.180981,202.721669 215.50045,202.721669 C207.819919,202.721669 201.571279,196.463833 201.571279,188.771998 C201.571279,185.280155 198.744534,182.449249 195.257822,182.449249 C191.77111,182.449249 188.944364,185.280155 188.944364,188.771998 C188.944364,201.258163 197.582016,211.755613 209.186151,214.60085 L209.186151,257.546648 C197.582016,260.391885 188.944364,270.890178 188.944364,283.3755 L188.944364,323.62865 C187.121038,322.741779 185.698406,321.103766 185.140296,319.055195 L172.820636,273.813817 C170.025879,263.551574 172.078173,252.785197 178.450556,244.275619 L180.933008,240.960813 C185.92569,234.294949 186.23042,225.169114 181.692306,218.25287 C167.966008,197.328785 136.788472,140.318664 134.264772,51.6045924 C145.533873,56.7378217 157.065613,61.4798835 168.702578,65.2263231 L168.702578,113.150233 C168.702578,125.864016 173.717147,137.761744 182.821153,146.652373 C186.713609,150.452766 188.944364,155.787481 188.944364,161.289958 C188.944364,164.781802 191.77111,167.612708 195.257822,167.612708 C198.744534,167.612708 201.571279,164.781802 201.571279,161.289958 C201.571279,152.400173 197.94988,143.764141 191.635581,137.599039 C184.989615,131.109369 181.328651,122.425284 181.328651,113.150233 L181.328651,68.8572672 C192.726546,71.7320105 204.166531,73.4593856 215.50045,73.4593856 C226.834369,73.4593856 238.274354,71.7311675 249.673091,68.8572672 L249.673091,113.151919 L249.673091,113.151919 C249.673091,122.42697 246.011285,131.111055 239.365319,137.599882 Z M215.501292,60.8172594 C191.748381,60.8172594 166.753824,52.2663735 142.678506,41.5269733 C155.722951,37.7822198 179.579403,32.9179181 215.501292,32.9179181 C251.429915,32.9179181 275.287208,37.7847489 288.325761,41.5269733 C264.249601,52.2663735 239.255044,60.8172594 215.501292,60.8172594 Z M376.382498,124.170363 C362.89106,132.986804 346.33465,131.599171 339.477393,121.075588 C334.173247,112.936945 336.204497,101.682452 343.635857,92.9199644 C359.538194,91.4800636 377.843011,103.739453 382.738045,118.92501 C380.866736,120.8623 378.739522,122.630141 376.382498,124.170363 Z M390.479186,105.710464 C383.702742,94.5132972 372.080087,85.7862173 359.387512,82.0878306 C363.907948,80.4944978 368.584115,79.8959442 373.073405,80.3798453 C379.775771,81.1040108 385.223864,84.1987857 388.413423,89.0934366 C391.445566,93.7444509 392.163616,99.6136481 390.479186,105.710464 Z"/>
      <path fill="#C2EDFF" d="M87.3650431 92.9191213C94.7964034 101.681609 96.8276531 112.935259 91.5243489 121.075588 84.6662505 131.599171 68.1106815 132.98849 54.6192438 124.170363 52.2622197 122.630141 50.1350055 120.8623 48.2636967 118.92501 53.1570471 103.740296 71.4635483 91.4741624 87.3650431 92.9191213zM229.430463 283.376343L229.430463 324.356188 201.571279 324.356188 201.571279 283.376343C201.571279 275.684508 207.819077 269.426672 215.50045 269.426672 223.180981 269.426672 229.430463 275.684508 229.430463 283.376343zM376.382498 124.170363C362.89106 132.986804 346.33465 131.599171 339.477393 121.075588 334.173247 112.936945 336.204497 101.682452 343.635857 92.9199644 359.538194 91.4800636 377.843011 103.739453 382.738045 118.92501 380.866736 120.8623 378.739522 122.630141 376.382498 124.170363z"/>
    </g>
  </g>
</svg>
