<svg xmlns="http://www.w3.org/2000/svg" width="480" height="480" viewBox="0 0 480 480">
  <g fill="none" fill-rule="evenodd">
    <g stroke="#FF5DCF" opacity="0">
      <circle cx="240" cy="240" r="200" />
      <rect width="280" height="280" x="100" y="100" />
      <line x2="480" y2="480" stroke-linecap="square" />
      <line x2="480" y2="480" stroke-linecap="square" transform="matrix(-1 0 0 1 480 0)" />
    </g>
    <path fill="#00599A" fill-rule="nonzero" d="M278.783333,220.433333 L253.0445,220.433333 L253.0445,220.297183 C300.982267,218.118783 350.1,190.8823 350.1,142.633333 C350.1,140.9736 350.015717,139.3398 349.911983,137.712483 C350.035167,137.206783 350.1,136.681633 350.1,136.15 C350.1,37.5255333 281.960167,25.9398167 241.244833,19.0221 C231.059517,17.2845667 222.25515,15.7934 216.3618,13.4334667 C193.423767,4.25955 154.128283,12.6100833 129.666667,19.4953833 C129.660183,19.4759333 129.666667,19.4629667 129.666667,19.45 C129.666667,8.72656667 120.9401,0 110.216667,0 C101.444717,0 94.0148167,5.82851667 91.5965333,13.8159833 L63.9840167,18.41915 C57.8507833,19.4435167 52.49555,23.08715 49.2927833,28.41645 C47.8145833,30.8866 45.1110333,32.4166667 42.2389167,32.4166667 L25.9333333,32.4166667 C22.3545333,32.4166667 19.45,35.3212 19.45,38.9 L19.45,58.35 C19.45,60.8071833 20.8374333,63.0504167 23.0352833,64.1525833 L61.9352833,83.6025833 C62.8299833,84.0499333 63.8284167,84.2833333 64.8333333,84.2833333 L95.8755333,84.2833333 C102.884017,87.46665 139.132333,104.744733 149.8039,126.081383 C158.277617,143.028817 160.903367,172.644683 161.713783,188.7817 C161.908283,192.775433 159.2177,196.237533 155.314733,197.022017 L153.953233,197.294317 C142.0628,199.6737 133.005583,208.964317 130.457633,220.433333 L116.7,220.433333 C113.1212,220.433333 110.216667,223.337867 110.216667,226.916667 L0,226.916667 L0,239.883333 L110.216667,239.883333 L110.216667,265.816667 C110.216667,267.858917 111.1762,269.777983 112.81,271.003333 L138.004233,289.90225 L156.896667,315.09 C158.569367,317.320267 161.486867,318.234417 164.132067,317.352683 L176.385567,313.268183 L188.107433,383.586417 C188.52885,386.108433 190.39605,388.150683 192.8662,388.792533 C193.4108,388.928683 193.9554,389 194.5,389 C196.438517,389 198.3122,388.12475 199.563483,386.56875 L225.496817,354.152083 C226.119217,353.380567 226.547117,352.479383 226.761067,351.506883 L236.6676,306.921 L247.663333,321.573333 C249.063733,323.440533 251.365317,324.413033 253.699317,324.108317 C256.02035,323.8036 257.997767,322.26705 258.866533,320.08865 L271.58035,288.300867 L284.170983,269.408433 C284.88415,268.35165 285.266667,267.093883 285.266667,265.816667 L285.266667,239.883333 L389,239.883333 L389,226.916667 L285.266667,226.916667 C285.266667,223.337867 282.362133,220.433333 278.783333,220.433333 L278.783333,220.433333 Z M156.4947,210.008133 L157.8562,209.735833 C168.119317,207.6871 175.179667,198.597467 174.661,188.133367 C173.798717,170.978467 170.933083,139.352767 161.402583,120.285283 C147.534733,92.5495833 101.749433,72.6781667 99.8109167,71.8418167 C99.0005,71.4917167 98.12525,71.3166667 97.25,71.3166667 L66.3634,71.3166667 L32.4166667,54.3433 L32.4166667,45.3833333 L42.2389167,45.3833333 C49.6428833,45.3833333 56.6059833,41.4414667 60.4117,35.0942833 C61.6500167,33.0261 63.7311667,31.6127333 66.1170333,31.2107667 L98.3132667,25.8425667 C101.438233,25.3239 103.733333,22.62035 103.733333,19.45 C103.733333,15.8776833 106.64435,12.9666667 110.216667,12.9666667 C113.788983,12.9666667 116.7,15.8776833 116.7,19.45 C116.7,21.21995 115.98035,22.8213333 114.826317,23.9948167 C112.200567,24.8506167 110.2426,25.5313667 109.09505,25.9333333 L103.733333,25.9333333 L103.733333,38.9 L110.216667,38.9 C114.236333,38.9 117.977217,37.67465 121.082733,35.57405 C144.811733,27.9755833 189.89035,16.7918333 211.5382,25.4730167 C218.721733,28.3451333 228.154983,29.9465167 239.072917,31.8072333 C280.112417,38.7833 336.186767,48.3202833 337.120367,133.978083 C336.85455,134.782017 336.750817,135.637817 336.81565,136.506583 C336.977733,138.529383 337.133333,140.56515 337.133333,142.633333 C337.133333,184.204467 291.198917,207.0647 247.8708,207.466667 L246.204583,207.505567 C242.6582,207.58985 239.9352,210.513833 239.980583,214.0667 C239.980583,214.4168 240.013,214.760417 240.077833,215.091067 L240.077833,220.433333 L214.896567,220.433333 C216.543333,212.99695 220.958483,206.396917 227.441817,202.072533 L230.709417,199.894133 C232.2719,198.850317 233.30275,197.190583 233.542633,195.329867 C233.782517,193.46915 233.2055,191.595467 231.9607,190.195067 C231.779167,189.994083 213.8333,169.5651 213.956483,149.155567 L200.989817,149.077767 C200.8796,167.263517 211.453917,184.470283 217.74275,193.086633 C209.035633,199.835783 203.382167,209.6321 201.728917,220.433333 L143.955933,220.433333 C146.095433,215.207767 150.705083,211.16865 156.4947,210.008133 Z M272.3,263.852217 L260.422533,281.668417 C260.169683,282.04445 259.962217,282.439933 259.79365,282.854867 L251.112467,304.561067 L239.883333,289.59105 L239.883333,272.3 L226.916667,272.3 L226.916667,291.043317 L214.429767,347.227883 L198.5067,367.131717 L188.016667,304.17855 L188.016667,265.816667 L175.05,265.816667 L175.05,300.042183 L164.4692,303.569117 L149.116667,283.107717 L149.116667,246.366667 L136.15,246.366667 L136.15,272.3 L123.183333,262.575 L123.183333,233.4 L220.433333,233.4 L220.433333,246.366667 L233.4,246.366667 L233.4,233.4 L272.3,233.4 L272.3,263.852217 Z" transform="translate(60 75)" />
    <path fill="#C2EDFF" fill-rule="nonzero" d="M332.3,338.852217 L320.422533,356.668417 C320.169683,357.04445 319.962217,357.439933 319.79365,357.854867 L311.112467,379.561067 L299.883333,364.59105 L299.883333,347.3 L286.916667,347.3 L286.916667,366.043317 L274.429767,422.227883 L258.5067,442.131717 L248.016667,379.17855 L248.016667,340.816667 L235.05,340.816667 L235.05,375.042183 L224.4692,378.569117 L209.116667,358.107717 L209.116667,321.366667 L196.15,321.366667 L196.15,347.3 L183.183333,337.575 L183.183333,308.4 L280.433333,308.4 L280.433333,321.366667 L293.4,321.366667 L293.4,308.4 L332.3,308.4 L332.3,338.852217 Z" />
  </g>
</svg>