<svg xmlns="http://www.w3.org/2000/svg" width="480" height="480" viewBox="0 0 480 480">
  <g fill="none" fill-rule="evenodd">
    <g stroke="#FF5DCF" opacity="0">
      <circle cx="240" cy="240" r="200"/>
      <rect width="280" height="280" x="100" y="100"/>
      <line x2="480" y2="480" stroke-linecap="square"/>
      <line x2="480" y2="480" stroke-linecap="square" transform="matrix(-1 0 0 1 480 0)"/>
    </g>
    <g fill="#C2EDFF" fill-rule="nonzero" transform="translate(72 72)">
      <rect width="337" height="26"/>
      <rect width="337" height="26" y="311"/>
      <rect width="32" height="36" x="247" y="238"/>
      <rect width="32" height="36" x="58" y="238"/>
      <rect width="107" height="36" x="115" y="238"/>
    </g>
    <path fill="#00599A" fill-rule="nonzero" d="M341.916992,36.6017227 C344.724168,36.6017227 347,34.3258906 347,31.5187148 L347,5.08300781 C347,2.27583203 344.724168,0 341.916992,0 L5.08300781,0 C2.27583203,0 0,2.27583203 0,5.08300781 L0,31.5187148 C0,34.3258906 2.27583203,36.6017227 5.08300781,36.6017227 L16.676332,36.6017227 L16.676332,310.398277 L5.08300781,310.398277 C2.27583203,310.398277 0,312.674109 0,315.481285 L0,341.916992 C0,344.724168 2.27583203,347 5.08300781,347 L341.916992,347 C344.724168,347 347,344.724168 347,341.916992 L347,315.481285 C347,312.674109 344.724168,310.398277 341.916992,310.398277 L330.323668,310.398277 L330.323668,36.6017227 L341.916992,36.6017227 Z M10.1660156,10.1660156 L336.833984,10.1660156 L336.833984,26.435707 L290.070312,26.435707 C287.263137,26.435707 284.987305,28.7115391 284.987305,31.5187148 C284.987305,34.3258906 287.263137,36.6017227 290.070312,36.6017227 L295.42577,36.6017227 L295.42577,310.398277 L288.84768,310.398277 L288.84768,238.33207 C288.84768,219.547984 274.832133,204.005502 256.735947,201.546682 L256.735947,36.6017227 L266.349609,36.6017227 C269.156785,36.6017227 271.432617,34.3258906 271.432617,31.5187148 C271.432617,28.7115391 269.156785,26.435707 266.349609,26.435707 L10.1660156,26.435707 L10.1660156,10.1660156 Z M125.166018,310.398277 L125.166018,284.164535 L179.502693,284.164535 C182.309869,284.164535 184.585701,281.888703 184.585701,279.081527 C184.585701,276.274352 182.309869,273.99852 179.502693,273.99852 L125.166018,273.99852 L125.166018,247.764777 C243.623143,247.772232 147.427559,247.768166 221.838727,247.764777 L221.838727,273.99852 L203.223396,273.99852 C200.416221,273.99852 198.140389,276.274352 198.140389,279.081527 C198.140389,281.888703 200.416221,284.164535 203.223396,284.164535 L221.838727,284.164535 L221.838727,310.398277 L125.166018,310.398277 Z M68.3183359,310.398277 L68.3183359,284.164535 L90.2687969,284.164535 L90.2687969,310.398277 L68.3183359,310.398277 Z M68.3183359,247.7641 L90.2687969,247.7641 L90.2687969,273.997842 L68.3183359,273.997842 L68.3183359,247.7641 Z M90.2687969,237.598084 L68.3346016,237.598084 C68.6795684,224.769928 78.021459,214.146441 90.2687969,211.831979 L90.2687969,237.598084 Z M100.434813,161.784684 C100.434813,158.977508 98.1589805,156.701676 95.3518047,156.701676 C92.5446289,156.701676 90.2687969,158.977508 90.2687969,161.784684 L90.2687969,201.546004 C72.1590566,204.004146 58.1523203,219.558828 58.1523203,238.33207 L58.1523203,310.398277 L51.5742305,310.398277 L51.5742305,36.6017227 L90.2687969,36.6017227 L90.2687969,137.386246 C90.2687969,140.193422 92.5446289,142.469254 95.3518047,142.469254 C98.1589805,142.469254 100.434813,140.193422 100.434813,137.386246 L100.434813,36.6017227 L115.000002,36.6017227 L115.000002,310.398277 L100.434813,310.398277 L100.434813,161.784684 Z M221.838727,36.6017227 L221.838727,63.294291 C210.654754,46.8402559 192.198691,37.726084 173.5,37.726084 C154.74099,37.726084 136.315426,46.8890527 125.166018,63.2875137 L125.166018,36.6017227 L221.838727,36.6017227 Z M151.373328,228.434438 C146.667818,223.720795 143.658,217.770287 142.632588,211.317578 C147.533963,210.851975 151.381461,206.715762 151.381461,201.694428 L151.381461,192.159383 C159.159818,196.181059 167.132686,198.561262 173.500678,198.561262 C179.86867,198.561262 187.840859,196.181059 195.619895,192.159383 L195.619895,201.694428 C195.619895,206.715762 199.467393,210.851975 204.368768,211.317578 C203.343355,217.769609 200.334215,223.720795 195.628027,228.434438 C183.591465,240.490654 163.744014,240.826811 151.373328,228.434438 Z M221.838727,201.198326 L205.785232,201.198326 L205.785232,185.828666 C212.149158,181.125867 217.7486,175.464752 221.838727,168.806689 L221.838727,201.198326 Z M221.700469,99.772666 L218.069168,149.088008 C216.425662,171.401734 187.399654,188.395924 173.500678,188.395924 C159.601701,188.395924 130.575693,171.402412 128.932188,149.088008 L125.300887,99.772666 C123.246674,71.8859297 145.227633,47.8920996 173.501355,47.8920996 C201.462643,47.8920996 223.777047,71.5755273 221.700469,99.772666 Z M141.214768,185.828666 L141.214768,201.198326 L125.166018,201.198326 L125.166018,168.814145 C129.254789,175.467463 134.85152,181.126545 141.214768,185.828666 Z M125.166018,211.364342 L132.379822,211.364342 C133.561791,221.209789 138.23477,230.549646 146.315396,237.598084 L125.166018,237.598084 L125.166018,211.364342 L125.166018,211.364342 Z M214.620178,211.364342 L221.838727,211.364342 L221.838727,237.598084 L200.685281,237.598084 C208.761164,230.552357 213.437531,221.214533 214.620178,211.364342 Z M232.004742,36.6017227 L246.569932,36.6017227 L246.569932,310.398277 L232.004742,310.398277 L232.004742,36.6017227 Z M278.663365,237.598084 L256.735947,237.598084 L256.735947,211.840111 C268.789453,214.115943 278.310266,224.560508 278.663365,237.598084 Z M256.735947,247.7641 L278.681664,247.7641 L278.681664,273.997842 L256.735947,273.997842 L256.735947,247.7641 L256.735947,247.7641 Z M256.735947,284.164535 L278.681664,284.164535 L278.681664,310.398277 L256.735947,310.398277 L256.735947,284.164535 L256.735947,284.164535 Z M26.8423477,36.6017227 L41.4082148,36.6017227 L41.4082148,310.398277 L26.8423477,310.398277 L26.8423477,36.6017227 Z M336.833984,336.833984 L10.1660156,336.833984 L10.1660156,320.564293 L336.833984,320.564293 L336.833984,336.833984 Z M320.157652,310.398277 L305.591785,310.398277 L305.591785,36.6017227 L320.157652,36.6017227 L320.157652,310.398277 Z" transform="translate(67 67)"/>
  </g>
</svg>
