<svg xmlns="http://www.w3.org/2000/svg" width="480" height="480" viewBox="0 0 480 480">
  <g fill="none" fill-rule="evenodd">
    <g stroke="#FF5DCF" opacity="0">
      <circle cx="240" cy="240" r="200"/>
      <rect width="280" height="280" x="100" y="100"/>
      <line x2="480" y2="480" stroke-linecap="square"/>
      <line x2="480" y2="480" stroke-linecap="square" transform="matrix(-1 0 0 1 480 0)"/>
    </g>
    <path fill="#C2EDFF" fill-rule="nonzero" d="M-1.42108547e-14 179.81562C.983352798 179.60703 1.98568093 179.501007 2.99090098 179.499253 10.1421452 179.499253 16.9733631 184.997913 20.8114367 193.848722 21.7604087 196.03501 23.9161375 197.449412 26.2989923 197.449178L53.8362176 197.449178C60.4435336 197.449178 65.7998216 202.806815 65.7998216 209.415795 65.7998216 216.024775 60.4435336 221.382411 53.8362176 221.382411L26.2989923 221.382411C23.9161375 221.382178 21.7604087 222.796579 20.8114367 224.982867 16.9733631 233.833676 10.1421452 239.332337 2.99090098 239.332337 1.98568295 239.330544.983358693 239.224522-1.42108547e-14 239.015969L-1.42108547e-14 179.81562zM215.344871 155.566019L215.344871 251.298954C215.333334 261.20764 207.305656 269.237339 197.399465 269.248879L125.617841 269.248879C115.71165 269.237339 107.683972 261.20764 107.672435 251.298954L107.672435 155.566019C107.698396 132.445353 126.430205 113.708827 149.545049 113.68286L173.472257 113.68286C196.587101 113.708827 215.31891 132.445353 215.344871 155.566019z" transform="translate(176.692 128.783)"/>
    <g fill="#00599A" fill-rule="nonzero" transform="translate(69 51)">
      <path d="M155 24C145.058875 24 137 32.0588745 137 42 137 51.9411255 145.058875 60 155 60 164.941125 60 173 51.9411255 173 42 172.988428 32.0636718 164.936328 24.0115721 155 24L155 24zM155 48C151.686292 48 149 45.3137085 149 42 149 38.6862915 151.686292 36 155 36 158.313708 36 161 38.6862915 161 42 160.99628 45.3121664 158.312166 47.9962801 155 48L155 48zM305 222L287 222C283.686292 222 281 224.686292 281 228 281 231.313708 283.686292 234 287 234L305 234C308.313708 234 311 231.313708 311 228 311 224.686292 308.313708 222 305 222zM305 246L287 246C283.686292 246 281 248.686292 281 252 281 255.313708 283.686292 258 287 258L305 258C308.313708 258 311 255.313708 311 252 311 248.686292 308.313708 246 305 246zM305 269L287 269C283.686292 269 281 271.686292 281 275 281 278.313708 283.686292 281 287 281L305 281C308.313708 281 311 278.313708 311 275 311 271.686292 308.313708 269 305 269zM305 293L287 293C283.686292 293 281 295.686292 281 299 281 302.313708 283.686292 305 287 305L305 305C308.313708 305 311 302.313708 311 299 311 295.686292 308.313708 293 305 293zM305 317L287 317C283.686292 317 281 319.686292 281 323 281 326.313708 283.686292 329 287 329L305 329C308.313708 329 311 326.313708 311 323 311 319.686292 308.313708 317 305 317z"/>
      <path d="M53.8553079,341.04858 C59.9678887,341.046022 66.0357538,340.006386 71.8007137,337.973907 L71.8007137,341.04858 C71.7956109,348.541688 76.4474391,355.248519 83.4662068,357.867447 C90.4849746,360.486376 98.3917299,358.465558 103.294153,352.799798 C114.522074,356.922971 126.392076,359.021706 138.352747,358.999592 L172.551456,358.999592 C186.366541,359.038921 200.041898,356.232791 212.725238,350.755002 C218.270763,356.049446 225.643217,358.999592 233.309367,358.999592 L305.09099,358.999592 C321.601593,358.979957 334.981457,345.596724 335,329.081963 L335,233.349028 C334.991891,215.250893 325.893149,198.36784 310.782675,188.412886 C318.412714,184.151109 323.11076,176.06539 323.035688,167.324456 C322.960615,158.583522 318.124384,150.57973 310.422271,146.449701 C310.855092,144.532549 311.073275,142.573173 311.072792,140.607748 C311.072792,129.736076 304.291672,119.65121 293.127386,113.562446 L293.127386,89.7496263 C293.13212,81.349901 288.732002,73.5631472 281.53503,69.2349932 C274.338059,64.9068393 265.398891,64.6715403 257.9843,68.6150851 C243.85503,27.5615803 205.233952,0 161.826833,0 L149.079613,0 C95.6324185,0 51.3062453,41.384043 47.6289997,94.718016 L37.9040852,235.762545 C12.4739048,243.645696 -3.37662984,268.937662 0.612389543,295.267181 C4.60140893,321.596701 27.2318822,341.055715 53.8553079,341.04858 Z M95.7279216,341.04858 C95.7279216,344.35307 93.0497776,347.031888 89.7461196,347.031888 C86.4424616,347.031888 83.7643177,344.35307 83.7643177,341.04858 L83.7643177,233.349028 C83.7643177,230.044538 86.4424616,227.36572 89.7461196,227.36572 C93.0497776,227.36572 95.7279216,230.044538 95.7279216,233.349028 L95.7279216,341.04858 Z M107.691526,257.598629 C108.674878,257.39004 109.677206,257.284017 110.682426,257.282262 C117.833671,257.282262 124.664889,262.780922 128.502962,271.631731 C129.451934,273.81802 131.607663,275.232421 133.990518,275.232187 L161.527743,275.232187 C168.135059,275.232187 173.491347,280.589824 173.491347,287.198804 C173.491347,293.807784 168.135059,299.165421 161.527743,299.165421 L133.990518,299.165421 C131.607663,299.165187 129.451934,300.579589 128.502962,302.765877 C124.664889,311.616686 117.833671,317.115346 110.682426,317.115346 C109.677208,317.113554 108.674884,317.007531 107.691526,316.798979 L107.691526,257.598629 Z M323.036396,233.349028 L323.036396,329.081963 C323.024859,338.990649 314.997181,347.020348 305.09099,347.031888 L233.309367,347.031888 C223.403175,347.020348 215.375498,338.990649 215.363961,329.081963 L215.363961,233.349028 C215.389921,210.228363 234.12173,191.491836 257.236575,191.465869 L281.163782,191.465869 C304.278627,191.491836 323.010436,210.228363 323.036396,233.349028 Z M299.109188,179.499253 L239.291169,179.499253 C232.683853,179.499253 227.327565,174.141616 227.327565,167.532636 C227.327565,160.923656 232.683853,155.566019 239.291169,155.566019 L299.109188,155.566019 C305.716504,155.566019 311.072792,160.923656 311.072792,167.532636 C311.072792,174.141616 305.716504,179.499253 299.109188,179.499253 Z M269.200178,77.7830094 C275.804249,77.7908398 281.155954,83.1438924 281.163782,89.7496263 L281.163782,117.293787 C281.163549,119.677241 282.577594,121.833513 284.763332,122.782724 C293.611912,126.621764 299.109188,133.454703 299.109188,140.607748 C299.107396,141.613219 299.0014,142.615796 298.7929,143.599402 L239.608952,143.599402 C239.399923,142.615852 239.293426,141.613272 239.291169,140.607748 C239.291169,133.454703 244.788445,126.621764 253.637025,122.782724 C255.822763,121.833513 257.236808,119.677241 257.236575,117.293787 L257.236575,89.7496263 C257.244403,83.1438924 262.596108,77.7908398 269.200178,77.7830094 L269.200178,77.7830094 Z M59.5649378,95.5414688 C62.1256349,58.5290891 87.1772608,26.9018451 122.613878,15.9432732 C115.381803,25.0742535 112.28632,36.809304 114.073367,48.3205555 C115.860414,59.831807 122.367923,70.0753047 132.027739,76.5826082 C103.776811,88.6160969 89.2255079,120.093015 98.3575906,149.416809 C107.489673,178.740604 137.337989,196.383527 167.42338,190.240634 C197.508772,184.097742 218.056037,156.164954 214.967541,125.607168 C211.879045,95.0493829 186.158287,71.7952906 155.452476,71.799701 C138.934186,71.799701 125.543466,58.4056089 125.543466,41.8831589 C125.543466,25.360709 138.934186,11.9660444 155.452476,11.9660444 L161.826833,11.9660444 C182.069694,11.8939625 201.730095,18.7398672 217.551805,31.370486 C232.502489,43.2583569 243.291514,59.5892277 248.362571,78.0073835 C246.334364,81.5881591 245.269805,85.6340895 245.272971,89.7496263 L245.272971,113.562446 C234.108685,119.65121 227.327565,129.736076 227.327565,140.607748 C227.329169,142.572607 227.549105,144.531201 227.98332,146.447457 C220.27953,150.576165 215.441374,158.579991 215.365209,167.32177 C215.289043,176.063549 219.987002,184.150505 227.617682,188.412886 C212.507208,198.36784 203.408465,215.250893 203.400357,233.349028 L203.400357,329.081963 C203.39611,333.072723 204.19457,337.023552 205.748214,340.699304 C195.188782,344.915061 183.918654,347.064795 172.549213,347.03226 L138.352747,347.03226 C127.891275,347.05201 117.507678,345.232835 107.675823,341.657381 C107.682553,341.454697 107.691526,341.25276 107.691526,341.04858 L107.691526,328.912935 C108.684518,329.025526 109.683074,329.081959 110.682426,329.081963 C121.552108,329.081963 131.633688,322.299135 137.720919,311.132038 L161.527743,311.132038 C174.742375,311.132038 185.454951,300.416764 185.454951,287.198804 C185.454951,273.980844 174.742375,263.26557 161.527743,263.26557 L137.720919,263.26557 C131.633688,252.098473 121.552108,245.315645 110.682426,245.315645 C109.683074,245.31565 108.684518,245.372082 107.691526,245.484674 L107.691526,233.349028 C107.691526,223.435558 99.6570936,215.399103 89.7461196,215.399103 C79.8351456,215.399103 71.8007137,223.435558 71.8007137,233.349028 L71.8007137,236.428936 C66.0365603,234.392763 59.9683572,233.351299 53.8553079,233.349028 C52.57595,233.349028 51.313042,233.410357 50.053125,233.498611 L59.5649378,95.5414688 Z M155.452476,83.7663178 C181.88174,83.7663178 203.306891,105.196865 203.306891,131.632785 C203.306891,158.068705 181.88174,179.499253 155.452476,179.499253 C129.023212,179.499253 107.59806,158.068705 107.59806,131.632785 C107.627729,105.209167 129.035511,83.7959944 155.452476,83.7663178 Z M53.8553079,245.315645 C60.0623016,245.315645 66.1917069,246.695549 71.8007137,249.354378 L71.8007137,263.28352 C59.4644941,254.011351 42.1010476,255.648529 31.7143837,267.063211 C21.3277197,278.477893 21.3277197,295.922706 31.7143837,307.337389 C42.1010476,318.752071 59.4644941,320.389249 71.8007137,311.117079 L71.8007137,325.04323 C56.2684219,332.409876 37.8128359,329.532826 25.2583842,317.787723 C12.7039325,306.04262 8.60135964,287.815769 14.9122864,271.822232 C21.2232131,255.828694 36.66542,245.317949 53.8553079,245.315645 L53.8553079,245.315645 Z M71.8007137,287.198804 C71.8007137,297.112274 63.7662819,305.148729 53.8553079,305.148729 C43.9443339,305.148729 35.909902,297.112274 35.909902,287.198804 C35.909902,277.285334 43.9443339,269.248879 53.8553079,269.248879 C63.7614991,269.260419 71.7891767,277.290118 71.8007137,287.198804 L71.8007137,287.198804 Z"/>
    </g>
  </g>
</svg>
