<svg xmlns="http://www.w3.org/2000/svg" viewBox="0 0 958.57 309.36"><defs><style>.cls-1{fill:#fff;}.cls-2{fill:#00aef3;}</style></defs><title>Progressive SHopper DkBkgd</title><g id="Layer_2" data-name="Layer 2"><g id="Layer_1-2" data-name="Layer 1"><path class="cls-1" d="M384.87,75.3h31.48q14.79,0,12.16,14.93l-5.34,30.3q-2.62,14.92-17.42,14.93H389.87l-6.17,35H368.1ZM408,118.12l4.49-25.48q.43-2.42-.24-3.24c-.45-.55-1.39-.83-2.84-.83H398.14l-5.93,33.62h11.26a4.77,4.77,0,0,0,3.13-.83A5.51,5.51,0,0,0,408,118.12Z"/><path class="cls-1" d="M446.56,133.35,440,170.44H424.41L441.19,75.3h31.48q14.77,0,12.15,14.93l-5,28.19q-2.18,12.36-12.45,14.47L475,170.44H458.2l-6.49-37.09Zm7.89-44.78-5.64,32h11.27a4.73,4.73,0,0,0,3.13-.83,5.51,5.51,0,0,0,1.38-3.24l4.2-23.82q.43-2.42-.24-3.24c-.44-.55-1.39-.83-2.84-.83Z"/><path class="cls-1" d="M513.78,75.3h16.55q14.79,0,12.16,14.93L531,155.51q-2.62,14.93-17.42,14.93H497q-14.79,0-12.15-14.93l11.51-65.28Q499,75.31,513.78,75.3Zm2,77.8,10.66-60.46q.43-2.42-.24-3.24c-.45-.55-1.39-.83-2.84-.83h-7.19a5,5,0,0,0-3.27.83,5.51,5.51,0,0,0-1.38,3.24L500.88,153.1q-.44,2.42.24,3.24c.44.55,1.43.83,3,.83h7.2a4.79,4.79,0,0,0,3.13-.83A5.51,5.51,0,0,0,515.8,153.1Z"/><path class="cls-1" d="M597.36,104.55H581.62L583.83,92c.28-1.61.2-2.69-.24-3.25s-1.4-.82-2.84-.82h-6.38a4.77,4.77,0,0,0-3.13.82A5.64,5.64,0,0,0,569.85,92L559,153.85c-.28,1.61-.2,2.69.25,3.24s1.39.83,2.83.83h6.38a4.71,4.71,0,0,0,3.13-.83,5.51,5.51,0,0,0,1.39-3.24l3.72-21.11h-6.78L572,120.53h22.52l-6.19,35.13q-2.62,14.93-17.42,14.93H555.05q-14.79,0-12.16-14.93l11.54-65.43q2.64-14.92,17.42-14.93h15.88q14.79,0,12.16,14.93Z"/><path class="cls-1" d="M619.56,133.35,613,170.44H597.41L614.19,75.3h31.48q14.79,0,12.16,14.93l-5,28.19q-2.19,12.36-12.46,14.47L648,170.44H631.2l-6.49-37.09Zm7.89-44.78-5.63,32h11.26a4.71,4.71,0,0,0,3.13-.83,5.57,5.57,0,0,0,1.39-3.24l4.2-23.82c.28-1.61.2-2.69-.25-3.24s-1.39-.83-2.83-.83Z"/><path class="cls-1" d="M673.84,157.17h26l-2.34,13.27H655.76L672.54,75.3h40.7L710.9,88.57h-25L681.28,115h21L700,128.37h-21Z"/><path class="cls-1" d="M736.7,153.1l3.59-20.36q.42-2.4-.24-3.24c-.45-.55-1.39-.83-2.84-.83h-11q-14,0-11.32-15.07L719,90.23q2.64-14.92,17.29-14.93h14.92q14.65,0,12,14.93l-2.34,13.26H745.18l1.91-10.85c.29-1.61.2-2.69-.24-3.24s-1.39-.83-2.84-.83h-5.16a5,5,0,0,0-3.26.83,5.51,5.51,0,0,0-1.39,3.24l-3.38,19.15c-.28,1.61-.2,2.69.25,3.24s1.43.83,3,.83h10.72q14.25,0,11.64,14.77L752,155.51q-2.64,14.93-17.42,14.93H719.94q-14.79,0-12.16-14.93l2.31-13.12H725.7l-1.89,10.71q-.42,2.42.24,3.24c.45.55,1.44.83,3,.83h5.16a4.79,4.79,0,0,0,3.13-.83A5.51,5.51,0,0,0,736.7,153.1Z"/><path class="cls-1" d="M790.84,153.1l3.59-20.36q.42-2.4-.24-3.24c-.45-.55-1.4-.83-2.84-.83h-11q-14,0-11.32-15.07l4.12-23.37q2.64-14.92,17.29-14.93h14.92q14.65,0,12,14.93l-2.34,13.26H799.32l1.91-10.85q.42-2.42-.24-3.24c-.45-.55-1.39-.83-2.84-.83H793a5,5,0,0,0-3.26.83,5.51,5.51,0,0,0-1.39,3.24L785,111.79c-.28,1.61-.2,2.69.25,3.24s1.43.83,3,.83H798.9q14.25,0,11.64,14.77l-4.38,24.88q-2.64,14.93-17.42,14.93H774.08q-14.79,0-12.16-14.93l2.31-13.12h15.61L778,153.1q-.42,2.42.24,3.24c.45.55,1.44.83,3,.83h5.16a4.79,4.79,0,0,0,3.13-.83A5.51,5.51,0,0,0,790.84,153.1Z"/><path class="cls-1" d="M832.38,75.3H848l-16.77,95.14H815.6Z"/><path class="cls-1" d="M894.52,75.3h16L876.8,170.44H856.31l-.19-95.14h16.15l-2.57,76.89Z"/><path class="cls-1" d="M919.17,157.17h26.05l-2.34,13.27H901.09L917.86,75.3h40.71l-2.34,13.27h-25L926.61,115h21l-2.36,13.42h-21Z"/><path class="cls-1" d="M378.71,264.19l3.58-20.35c.29-1.61.21-2.69-.24-3.25s-1.39-.82-2.84-.82h-11q-14,0-11.32-15.08L361,201.32q2.64-14.92,17.29-14.93h14.93q14.65,0,12,14.93l-2.34,13.27H387.18l1.91-10.86c.29-1.6.21-2.69-.24-3.24s-1.39-.83-2.84-.83h-5.15a5,5,0,0,0-3.27.83,5.6,5.6,0,0,0-1.39,3.24l-3.37,19.15q-.43,2.42.24,3.24c.45.55,1.44.83,3,.83h10.72q14.25,0,11.65,14.78L394,266.6q-2.62,14.92-17.42,14.93H361.94q-14.79,0-12.15-14.93l2.31-13.11h15.6l-1.89,10.7c-.28,1.61-.2,2.69.25,3.24s1.43.83,3,.83h5.16a4.73,4.73,0,0,0,3.13-.83A5.57,5.57,0,0,0,378.71,264.19Z"/><path class="cls-1" d="M452.67,186.39h15.6L451.5,281.53H435.89L443.05,241H425.41l-7.16,40.56h-15.6l16.77-95.14H435l-7.28,41.31h17.63Z"/><path class="cls-1" d="M495.55,186.39H512.1q14.79,0,12.16,14.93L512.75,266.6q-2.64,14.92-17.42,14.93H478.77q-14.79,0-12.16-14.93l11.52-65.28Q480.76,186.4,495.55,186.39Zm2,77.8,10.66-60.46c.28-1.6.2-2.69-.24-3.24s-1.4-.83-2.84-.83H498a5,5,0,0,0-3.27.83,5.6,5.6,0,0,0-1.39,3.24l-10.66,60.46c-.28,1.61-.2,2.69.25,3.24s1.43.83,3,.83h7.19a4.71,4.71,0,0,0,3.13-.83A5.51,5.51,0,0,0,497.57,264.19Z"/><path class="cls-1" d="M539.51,186.39H571q14.79,0,12.16,14.93l-5.35,30.3q-2.62,14.92-17.42,14.93H544.51l-6.17,35H522.73Zm23.12,42.82,4.49-25.48c.28-1.6.2-2.69-.24-3.24s-1.4-.83-2.84-.83H552.78l-5.93,33.62h11.26a4.73,4.73,0,0,0,3.13-.83A5.57,5.57,0,0,0,562.63,229.21Z"/><path class="cls-1" d="M595.82,186.39H627.3q14.79,0,12.16,14.93l-5.34,30.3q-2.64,14.92-17.43,14.93H600.82l-6.17,35H579Zm23.12,42.82,4.49-25.48c.28-1.6.2-2.69-.24-3.24s-1.4-.83-2.84-.83H609.09l-5.93,33.62h11.26a4.71,4.71,0,0,0,3.13-.83A5.57,5.57,0,0,0,618.94,229.21Z"/><path class="cls-1" d="M653.44,268.26h26l-2.34,13.27H635.36l16.77-95.14h40.71l-2.34,13.27h-25l-4.65,26.39h21l-2.36,13.41h-21Z"/><path class="cls-1" d="M708.25,244.44l-6.54,37.09h-15.6l16.77-95.14h31.48q14.79,0,12.16,14.93l-5,28.19q-2.19,12.38-12.46,14.48l7.63,37.54H719.89l-6.48-37.09Zm7.9-44.78-5.64,32h11.26a4.71,4.71,0,0,0,3.13-.83,5.57,5.57,0,0,0,1.39-3.24l4.2-23.82c.28-1.6.2-2.69-.24-3.24s-1.4-.83-2.84-.83Z"/><path class="cls-2" d="M63,305.81c3.51-5.75,6.21-12.28,10.69-17.17,17.3-18.89,19-24.5,27.62-45.14,1.31-3.14,1.72-6.65,2.55-10l-1.35-.58c-1.55,2.33-3.39,4.52-4.58,7-4,8.52-7.83,17.17-11.75,25.75a44.81,44.81,0,0,1-3.09,6c-.66,1-2,2.36-2.92,2.24-3.92-.55-4.64,2.24-5.58,4.81-.67,1.81-1,3.72-1.65,5.56-1.45,4.52-5.71,5.79-9.37,6.39s-7.9-.24-11.68-1.21c-2.87-.74-2.92-2.26-.81-4.45,4.27-4.42,8.49-8.9,12.86-13.23,2.34-2.32,5-4.32,7.4-6.57,4.69-4.38,6.48-10.34,8.26-16.16,2-6.68,3.24-13.62,5.36-20.28,1.26-3.95,3.66-7.54,5.39-11.36s3.4-7.58,4.78-11.49c2.14-6.07,3.88-12.28,6-18.35,1.32-3.73.57-5.76-1.84-8.69s-4.12-6.72-6-10.2c-4.93-9.25-7.57-19.25-6.4-29.58.74-6.5-1.53-11.31-4.58-16.32-.73-1.21-1.34-2.5-2-3.75l-1.51,1c-.56,1-1.06,2-1.69,3-3,4.36-6,8.63-8.86,13.06-1.22,1.9-2.61,4.09-2.72,6.21a52.65,52.65,0,0,0,.88,11.53c1,6.16-2.16,11.1-8.36,12.32a11.34,11.34,0,0,0-2.72,1.2c-4.93,3.09-8.72,2.69-13.7-.93a27.82,27.82,0,0,1-11.43-20.32c-.7-6.6,0-13.34-.13-20a12.24,12.24,0,0,0-1.37-4.73c-2.06-4.35-4.29-8.63-6.46-12.93A11,11,0,0,0,21,106.21c-4.2-5-4.45-10.41-1.77-16.06,1.17-2.47,1.21-4.15-1-6.2C8.73,75.26,5,64.06,4,51.49,3.76,47.73,1.84,44.12.78,40.4A41.41,41.41,0,0,1,0,35.77l.86-.72c2.29,1.45,4.89,2.58,6.81,4.42a114.36,114.36,0,0,1,11.5,12.32,41,41,0,0,0,11.18,10c3.39,2.12,5.63,1.73,9.4.71,7.7-2.1,9.29-7.89,11.08-13.89a43.14,43.14,0,0,0-.07-25.91C49.3,18.1,52.44,10.2,56.9,7.31,57.92,8.87,59,10.4,60,12,65.4,21.29,70.13,30.9,72.61,41.39c1.25,5.25,1.9,10.66-.47,15.91a10.18,10.18,0,0,0-.37,2.54c2.35-.17,4.47-.39,6.6-.47C97.6,58.62,115,64.21,128.24,78c10.6,11.06,31.09,11,41.18-4.35a126.42,126.42,0,0,0,9-16.43c8-17.3,20.71-29.14,39.65-32.57,6.81-1.24,14.16.5,21.26.86a16.27,16.27,0,0,0,4.13-.07c7.5-1.59,14,1.32,20.46,4.42,6.11,3,12,6.36,18.17,9.23,4,1.84,8.27,2.89,12.62,1.45,5.49-1.82,7.42-6.56,8.84-11.59.76-2.7,1.38-5.45,2.26-8.11C309,11.14,316,5.64,325.64,3.05c2.2-.58,4.17-2,6.25-3,4.57,23.24-13.06,43.3-29.53,47.88-8.18,2.27-15.51.51-22.73-2.36-4.94-2-9.36-5.23-14-7.91C263.19,36.21,261,34.07,257,35c7.74,10.52,12.17,21.87,12.48,34.68l.82-.08c1.32-2,2.52-4.14,4-6.06,4.71-6.14,13.46-6.8,16.19,2.23a111.27,111.27,0,0,1,3.7,19.28c.54,4.7-.09,9.53-.11,14.3-.06,10.55,2.94,19.75,11.62,26.52a5.85,5.85,0,0,1,1.84,3.48,47.72,47.72,0,0,1,.08,6.63,28.14,28.14,0,0,1,3.44,0c2.54.32,5.21.39,7.54,1.28,2.5,1,6.1,2.31,6.72,4.28,1.72,5.4,4.3,11,1.91,17-.88,2.19-1.94,2.45-4.26,1.57-4.84-1.84-9.68-3.72-14.66-5.26-6-1.86-13.34-3.94-15.73-11.45-1-3-1.07-6.38-2-9.44-2.89-9.35-6-18.62-9.06-27.91a4,4,0,0,0-1-1.68c-1.41-1.37-2.92-2.65-4.38-4a35.19,35.19,0,0,0-3.24,4c-1.93,3.23-3.66,6.58-5.63,10.17a15.57,15.57,0,0,1,1.34,1.71c1.69,2.81,3.25,5.71,5,8.46a5.33,5.33,0,0,0,2.51,2.1c3.15,1.06,6.42,1.74,9.55,2.84a3.11,3.11,0,0,1,1.78,2.32c-.36,5.78-.23,11.7-3.33,16.94-1.2,2-2.38,3.24-5.16,1.76-4.23-2.26-8.83-3.83-13.18-5.89a6.41,6.41,0,0,1-2.87-2.84,90.58,90.58,0,0,1-4.69-11.32c-1.16-3.65-2.26-4.58-5.84-3.5-7.65,2.29-12.35.87-17.42-5.29-.42-.5-.73-1.19-1.26-1.46-1.17-.6-2.66-1.61-3.64-1.29s-1.8,2-2,3.22c-2.91,18-9.07,34.52-20.88,48.64a53.75,53.75,0,0,1-28.65,18.21,54.94,54.94,0,0,1-26.34.51c-2-.48-3.22-.2-4.22,2.07-4.05,9.16-10.2,16.89-16.65,24.52a34,34,0,0,0-6.76,13c-3.45,13.38-11.71,24.09-18.26,35.78-4.52,8.06-8.28,16.53-12.5,24.76a4.59,4.59,0,0,1-2.72,2.35c-2.09.36-2.17,1.59-2.4,3.2-.37,2.56-.21,5.85-1.73,7.46a19.57,19.57,0,0,1-13.25,6.43C69.86,309.53,66.23,309.15,63,305.81Z"/><path class="cls-2" d="M37.74,198.86s5.78-6,7.44-7.31c0,0,12.67-.9,29.59-7.53l-8.39,11.71L41,202Z"/><path class="cls-1" d="M75.45,258.23s-25.36,1-46.61-6.08c0,0,9.4-45.8,8.9-53.29,0,0,21.95-4.65,27.41-6.35s11.29,31.58,11.29,31.58Z"/><path class="cls-1" d="M75.45,258.23l-10.3-65.72s7.59-5.28,9.62-8.49l13.61,63.5s-6.17,1.95-7.77,2.51Z"/><path class="cls-1" d="M60.26,165.52l.26-.11c1-.15,3.19.73,4.81,1.81s8.83,7.79,7.29,20.5a2.84,2.84,0,0,1-2,2.79s-.26-8.11-1.34-12.46c-.7-2.83-4.16-9.91-10-12.2Z"/><path class="cls-1" d="M41.81,196.62c.77-2.34,5.87-15.4,6.23-16.41l6.48-12.37L56,167a7.41,7.41,0,0,1-.92,2.38c-.26.52-5.14,13.29-3.9,10s-2.87,9-6.38,15.95C44.77,195.28,42.69,199.19,41.81,196.62Z"/></g></g></svg>