<svg xmlns="http://www.w3.org/2000/svg" width="480" height="480" viewBox="0 0 480 480">
  <g fill="none" fill-rule="evenodd">
    <g stroke="#FF5DCF" opacity="0">
      <circle cx="240" cy="240" r="200"/>
      <rect width="280" height="280" x="100" y="100"/>
      <line x2="480" y2="480" stroke-linecap="square"/>
      <line x2="480" y2="480" stroke-linecap="square" transform="matrix(-1 0 0 1 480 0)"/>
    </g>
    <g fill="#C2EDFF" fill-rule="nonzero" transform="translate(116 125)">
      <polygon points="230.376 4.97 244.344 25.857 257.312 0 269 2.911 255.935 42 220.527 42 208 8.691"/>
      <path d="M184 119.829318C184 109.070636 187.2562 98.7284545 193.4122 89.9116364L219.2134 53 256.792 53 282.5878 89.9116364C288.7438 98.7284545 292 109.070636 292 119.829318 292 148.600273 268.6396 172 239.917 172L236.0776 172C207.3604 172 184 148.600273 184 119.829318L184 119.829318zM0 26.2454874L0 10 163 10 163 26.2454874C163 45.8429603 156.067067 64.2924188 143.3748 79 131.339967 57.2581227 108.123333 42.4909747 81.5 42.4909747 54.8766667 42.4909747 31.6600333 57.2581227 19.6252 79 6.93293333 64.2924188 0 45.8429603 0 26.2454874zM150 247L13 247C28.4857765 232.953 48.4929873 225 69.612916 225L93.3816561 225C114.501585 225 134.514223 232.953 150 247z"/>
    </g>
    <g fill="#00599A" fill-rule="nonzero" transform="translate(84 70)">
      <path d="M134.5 173C125.954333 173 119 179.954333 119 188.5 119 197.045667 125.954333 204 134.5 204 143.045667 204 150 197.045667 150 188.5 150 179.954333 143.045667 173 134.5 173zM134.5 193.666667C131.648 193.666667 129.333333 191.352 129.333333 188.5 129.333333 185.648 131.648 183.333333 134.5 183.333333 137.352 183.333333 139.666667 185.648 139.666667 188.5 139.666667 191.352 137.352 193.666667 134.5 193.666667zM91.5 162C100.045667 162 107 155.045667 107 146.5 107 137.954333 100.045667 131 91.5 131 82.9543333 131 76 137.954333 76 146.5 76 155.045667 82.9543333 162 91.5 162zM91.5 141.333333C94.352 141.333333 96.6666667 143.648 96.6666667 146.5 96.6666667 149.352 94.352 151.666667 91.5 151.666667 88.648 151.666667 86.3333333 149.352 86.3333333 146.5 86.3333333 143.648 88.648 141.333333 91.5 141.333333z"/>
      <polygon points="67.595 162.09 159.279 162.09 159.279 172.895 67.595 172.895" transform="rotate(-45 113.437 167.493)"/>
      <polygon points="109 249 119 249 119 259 109 259"/>
      <polygon points="131 244 141 244 141 254 131 254"/>
      <polygon points="87 244 97 244 97 254 87 254"/>
      <path d="M274.875,194.142857 C283.76525,194.142857 291,186.836 291,177.857143 C291,168.878286 283.76525,161.571429 274.875,161.571429 L264.125,161.571429 C261.158,161.571429 258.75,159.139429 258.75,156.142857 C258.75,153.146286 261.158,150.714286 264.125,150.714286 L280.25,150.714286 L280.25,156.142857 L291,156.142857 L291,139.857143 L274.875,139.857143 L274.875,129 L264.125,129 L264.125,139.857143 C255.23475,139.857143 248,147.164 248,156.142857 C248,165.121714 255.23475,172.428571 264.125,172.428571 L274.875,172.428571 C277.842,172.428571 280.25,174.860571 280.25,177.857143 C280.25,180.853714 277.842,183.285714 274.875,183.285714 L258.75,183.285714 L258.75,177.857143 L248,177.857143 L248,194.142857 L264.125,194.142857 L264.125,205 L274.875,205 L274.875,194.142857 Z"/>
      <path d="M318.790323,226.935484 L307.297661,226.935484 C323.999032,215.610323 335,196.4775 335,174.821371 C335,161.848226 331.066452,149.372177 323.631613,138.738629 L297.760968,101.785968 L314.954032,50.201371 L283.474839,42.328871 L274.894516,59.4949194 L267.319194,48.1265323 L224.974113,55.1831452 L242.491371,101.899435 L216.696371,138.744032 C209.256129,149.377581 205.322581,161.848226 205.322581,174.821371 C205.322581,196.4775 216.323548,215.610323 233.024919,226.935484 L232.33871,226.935484 C223.401774,226.935484 216.129032,234.208226 216.129032,243.145161 L216.129032,253.951613 C216.129032,255.853548 216.518065,257.658226 217.123226,259.354839 L205.322581,259.354839 L205.322581,253.951613 C205.322581,230.085565 196.201935,207.759435 179.732903,190.577177 C182.261613,183.336855 183.709677,175.594032 183.709677,167.5 C183.709677,159.405968 182.261613,151.663145 179.732903,144.422823 C196.201935,127.240565 205.322581,104.914435 205.322581,81.0483871 L205.322581,32.4193548 L210.725806,32.4193548 C219.662742,32.4193548 226.935484,25.1466129 226.935484,16.2096774 C226.935484,7.27274194 219.662742,0 210.725806,0 L16.2096774,0 C7.27274194,0 0,7.27274194 0,16.2096774 C0,25.1466129 7.27274194,32.4193548 16.2096774,32.4193548 L21.6129032,32.4193548 L21.6129032,81.0483871 C21.6129032,104.914435 30.7335484,127.240565 47.2025806,144.422823 C44.673871,151.663145 43.2258065,159.405968 43.2258065,167.5 C43.2258065,175.594032 44.673871,183.336855 47.2025806,190.577177 C30.7335484,207.759435 21.6129032,230.085565 21.6129032,253.951613 L21.6129032,302.580645 L16.2096774,302.580645 C7.27274194,302.580645 0,309.853387 0,318.790323 C0,327.727258 7.27274194,335 16.2096774,335 L199.919355,335 L210.725806,335 L318.790323,335 C327.727258,335 335,327.727258 335,318.790323 L335,307.983871 C335,299.046935 327.727258,291.774194 318.790323,291.774194 L312.392903,291.774194 C312.998065,290.077581 313.387097,288.272903 313.387097,286.370968 L313.387097,275.564516 C313.387097,273.662581 312.998065,271.857903 312.392903,270.16129 L318.790323,270.16129 C327.727258,270.16129 335,262.888548 335,253.951613 L335,243.145161 C335,234.208226 327.727258,226.935484 318.790323,226.935484 Z M262.196935,59.9379839 L276.234516,80.9889516 L289.267097,54.9291935 L301.01371,57.8631452 L287.883871,97.2580645 L252.298226,97.2580645 L239.70871,63.6878226 L262.196935,59.9379839 Z M216.129032,174.821371 C216.129032,164.074355 219.387177,153.743387 225.546855,144.936129 L251.363468,108.064516 L288.964516,108.064516 L314.775726,144.936129 C320.935403,153.743387 324.193548,164.074355 324.193548,174.821371 C324.193548,203.561129 300.819194,226.935484 272.079435,226.935484 L268.237742,226.935484 C239.503387,226.935484 216.129032,203.561129 216.129032,174.821371 L216.129032,174.821371 Z M54.0322581,167.5 C54.0322581,134.729435 80.6971774,108.064516 113.467742,108.064516 C146.238306,108.064516 172.903226,134.729435 172.903226,167.5 C172.903226,200.270565 146.238306,226.935484 113.467742,226.935484 C80.6971774,226.935484 54.0322581,200.270565 54.0322581,167.5 Z M10.8064516,16.2096774 C10.8064516,13.2270968 13.2270968,10.8064516 16.2096774,10.8064516 L210.725806,10.8064516 C213.708387,10.8064516 216.129032,13.2270968 216.129032,16.2096774 C216.129032,19.1922581 213.708387,21.6129032 210.725806,21.6129032 L16.2096774,21.6129032 C13.2270968,21.6129032 10.8064516,19.1922581 10.8064516,16.2096774 Z M194.516129,32.4193548 L194.516129,54.0322581 L32.4193548,54.0322581 L32.4193548,32.4193548 L194.516129,32.4193548 Z M32.4193548,81.0483871 L32.4193548,64.8387097 L194.516129,64.8387097 L194.516129,81.0483871 C194.516129,100.602661 187.621613,119.011452 174.999677,133.686613 C163.031532,111.992661 139.943548,97.2580645 113.467742,97.2580645 C86.9919355,97.2580645 63.9039516,111.992661 51.9358065,133.686613 C39.313871,119.011452 32.4193548,100.602661 32.4193548,81.0483871 Z M51.9358065,201.313387 C63.9039516,223.007339 86.9919355,237.741935 113.467742,237.741935 C139.943548,237.741935 163.031532,223.007339 174.999677,201.313387 C187.621613,215.988548 194.516129,234.397339 194.516129,253.951613 L194.516129,300.062742 C176.517984,281.059597 151.679355,270.16129 125.295403,270.16129 L101.634677,270.16129 C75.2507258,270.16129 50.4120968,281.059597 32.4139516,300.062742 L32.4139516,253.951613 C32.4193548,234.397339 39.313871,215.988548 51.9358065,201.313387 Z M181.656452,302.580645 L45.2790323,302.580645 C60.6944355,288.780806 80.6107258,280.967742 101.634677,280.967742 L125.295403,280.967742 C146.319355,280.967742 166.241048,288.780806 181.656452,302.580645 Z M199.919355,324.193548 L16.2096774,324.193548 C13.2270968,324.193548 10.8064516,321.772903 10.8064516,318.790323 C10.8064516,315.807742 13.2270968,313.387097 16.2096774,313.387097 L210.725806,313.387097 C213.708387,313.387097 216.129032,315.807742 216.129032,318.790323 C216.129032,321.772903 213.708387,324.193548 210.725806,324.193548 L199.919355,324.193548 Z M324.193548,307.983871 L324.193548,318.790323 C324.193548,321.772903 321.772903,324.193548 318.790323,324.193548 L225.94129,324.193548 C226.546452,322.496935 226.935484,320.692258 226.935484,318.790323 C226.935484,309.853387 219.662742,302.580645 210.725806,302.580645 L237.741935,302.580645 L237.741935,313.387097 L248.548387,313.387097 L248.548387,302.580645 L259.354839,302.580645 L259.354839,313.387097 L270.16129,313.387097 L270.16129,302.580645 L280.967742,302.580645 L280.967742,313.387097 L291.774194,313.387097 L291.774194,302.580645 L297.177419,302.580645 L302.580645,302.580645 L302.580645,313.387097 L313.387097,313.387097 L313.387097,302.580645 L318.790323,302.580645 C321.772903,302.580645 324.193548,305.00129 324.193548,307.983871 Z M302.580645,275.564516 L302.580645,286.370968 C302.580645,289.353548 300.16,291.774194 297.177419,291.774194 L205.322581,291.774194 L205.322581,270.16129 L216.129032,270.16129 L216.129032,280.967742 L226.935484,280.967742 L226.935484,270.16129 L232.33871,270.16129 L237.741935,270.16129 L237.741935,280.967742 L248.548387,280.967742 L248.548387,270.16129 L259.354839,270.16129 L259.354839,280.967742 L270.16129,280.967742 L270.16129,270.16129 L280.967742,270.16129 L280.967742,280.967742 L291.774194,280.967742 L291.774194,270.16129 L297.177419,270.16129 C300.16,270.16129 302.580645,272.581935 302.580645,275.564516 Z M324.193548,253.951613 C324.193548,256.934194 321.772903,259.354839 318.790323,259.354839 L297.177419,259.354839 L232.33871,259.354839 C229.356129,259.354839 226.935484,256.934194 226.935484,253.951613 L226.935484,243.145161 C226.935484,240.162581 229.356129,237.741935 232.33871,237.741935 L237.741935,237.741935 L237.741935,248.548387 L248.548387,248.548387 L248.548387,237.741935 L259.354839,237.741935 L259.354839,248.548387 L270.16129,248.548387 L270.16129,237.741935 L272.079435,237.741935 L280.967742,237.741935 L280.967742,248.548387 L291.774194,248.548387 L291.774194,237.741935 L302.580645,237.741935 L302.580645,248.548387 L313.387097,248.548387 L313.387097,237.741935 L318.790323,237.741935 C321.772903,237.741935 324.193548,240.162581 324.193548,243.145161 L324.193548,253.951613 Z"/>
    </g>
  </g>
</svg>
