<svg xmlns="http://www.w3.org/2000/svg" width="480" height="480" viewBox="0 0 480 480">
  <g fill="none" fill-rule="evenodd">
    <g stroke="#FF5DCF" opacity="0">
      <circle cx="240" cy="240" r="200"/>
      <rect width="280" height="280" x="100" y="100"/>
      <line x2="480" y2="480" stroke-linecap="square"/>
      <line x2="480" y2="480" stroke-linecap="square" transform="matrix(-1 0 0 1 480 0)"/>
    </g>
    <g fill="#C2EDFF" fill-rule="nonzero" transform="translate(82 77)">
      <path d="M317,153 L317,191.535645 C310.37,191.535645 303.857,192.036609 297.5,193 L297,192.501 L297,192.658701 C236.67489,201.911502 190.325991,254.146086 190.325991,317 L152,317 C152,232.990441 215.474229,163.514613 297,154 L297,154.615 L297.5,154.117534 C303.896,153.378934 310.4025,153 317,153 Z"/>
      <path d="M317,76 L317,114.070233 L312.51194,116.364915 C305.638385,115.875704 295.771027,116.948476 282.909867,119.583233 L283.898084,116.679316 C189.229435,132.015029 116.467699,213.994799 115.021931,312.99484 L115,316 L115.646518,316.009799 C114.708179,316.844754 114.213256,317.167057 114.213256,316.917912 L76,316.917912 C76,190.654735 173.501124,86.786705 297,77 L297,78.223 L297.5,76.7550596 C303.935,76.2538016 310.435,76 317,76 Z"/>
      <path d="M317,0 L317,38 C310.448,38 303.9415,38.2162518 297.5,38.6551157 L297.5,38.6551157 L297.364915,39.0438658 C152.639421,49.2050213 38,169.992361 38,317 L38.008,316 L0,316 C0,147.576223 131.315974,9.87918002 297,0 L297,2.04 L297.5,0.567065802 C303.948,0.191145776 310.4545,0 317,0 Z"/>
    </g>
    <path fill="#00599A" fill-rule="nonzero" d="M321.224609,0 C277.861516,0 235.793508,8.49382813 196.188328,25.2452617 C157.936176,41.4242852 123.583926,64.5849297 94.0847461,94.0841094 C64.5855664,123.583289 41.4249219,157.936176 25.2452617,196.188328 C8.49382813,235.793508 0,277.861516 0,321.224609 C0,323.861898 2.13746484,326 4.77539062,326 L195.791016,326 C198.428941,326 200.566406,323.861898 200.566406,321.224609 C200.566406,254.69323 254.693867,200.566406 321.224609,200.566406 C323.862535,200.566406 326,198.428305 326,195.791016 L326,4.77539062 C326,2.13810156 323.862535,0 321.224609,0 Z M316.449219,124.220645 L316.449219,152.883813 C227.373539,155.377203 155.377203,227.373539 152.884449,316.449219 L124.221281,316.449219 C126.728043,211.572727 211.572727,126.728043 316.449219,124.220645 Z M114.669863,316.449219 L86.0092422,316.449219 C88.5306484,190.50625 190.50625,88.5300117 316.449219,86.0092422 L316.449219,114.669863 C206.306426,117.181082 117.181082,206.306426 114.669863,316.449219 Z M316.449219,9.58707422 L316.449219,38.2464219 C263.28002,39.1352813 211.786027,54.8571406 167.235453,83.8564961 C122.546074,112.946266 87.0445469,153.79241 64.568375,201.979285 C63.4534805,204.369527 64.4875117,207.210566 66.8777539,208.325461 C67.5303906,208.630449 68.2174102,208.774348 68.8929687,208.774348 C70.6910625,208.774348 72.4133867,207.753051 73.2239297,206.016082 C117.392473,111.323906 212.492785,49.6347734 316.449219,47.7978398 L316.449219,76.4571875 C185.239949,78.9805039 78.9805039,185.239949 76.4571875,316.449219 L47.8080273,316.449219 C48.3568789,284.389793 54.421625,253.073418 65.8831992,223.294082 C66.83,220.832527 65.603043,218.069168 63.1408516,217.122367 C60.6786602,216.17493 57.9165742,217.402523 56.9691367,219.864078 C45.085418,250.741754 38.7971836,283.211863 38.2470586,316.449219 L9.58707422,316.449219 C12.1237617,148.37266 148.37266,12.1237617 316.449219,9.58707422 Z M191.102219,316.449219 L162.441598,316.449219 C164.928621,232.640477 232.640477,164.928621 316.449219,162.440961 L316.449219,191.101582 C248.441926,193.566957 193.567594,248.441926 191.102219,316.449219 Z" transform="translate(77 72)"/>
  </g>
</svg>
