<svg xmlns="http://www.w3.org/2000/svg" width="480" height="480" viewBox="0 0 480 480">
  <g fill="none" fill-rule="evenodd">
    <g stroke="#FF5DCF" opacity="0">
      <circle cx="240" cy="240" r="200"/>
      <rect width="280" height="280" x="100" y="100"/>
      <line x2="480" y2="480" stroke-linecap="square"/>
      <line x2="480" y2="480" stroke-linecap="square" transform="matrix(-1 0 0 1 480 0)"/>
    </g>
    <g fill-rule="nonzero" transform="translate(30 105)">
      <path fill="#FC657E" d="M252.060141,78 L4.93985931,78 C2.21190264,78 0,80.2002564 0,82.9138497 L0,181.08615 C0,183.799744 2.21190264,186 4.93985931,186 L252.060141,186 C254.788097,186 257,183.799744 257,181.08615 L257,82.9138497 C257,80.2002564 254.788097,78 252.060141,78 Z"/>
      <path fill="#C2EDFF" d="M252.060141 78L4.93985931 78C2.21190264 78 0 80.2002564 0 82.9138497L0 181.08615C0 183.799744 2.21190264 186 4.93985931 186L252.060141 186C254.788097 186 257 183.799744 257 181.08615L257 82.9138497C257 80.2002564 254.788097 78 252.060141 78zM328.268128 20L255.731872 20C250.379427 20 246 24.5000866 246 30 246 35.4999134 250.379427 40 255.731872 40L328.268128 40C333.620573 40 338 35.4999134 338 30 338 24.4983538 333.620573 20 328.268128 20zM256.724027 20L326.275973 20C330.676101 19.0037709 334 14.9486977 334 10.1218977 334 4.55494168 329.58457 0 324.188123 0L258.811878 0C253.41543 0 249 4.55494168 249 10.1218977 248.9983 14.9486977 252.322199 19.0037709 256.724027 20L256.724027 20z"/>
      <path fill="#C2EDFF" d="M306 39L306 57.0507207C306 63.6563559 311.526649 67.8842366 317.441192 66.8426842 322.224661 65.9998489 325 61.6126519 325 56.7646364L325 39 306 39zM128.675408 247.039063C125.416004 247.039063 122.191991 246.884814 119 246.615302L119 312 139.549076 312C142.006269 312 144 309.996456 144 307.523384L144 246C138.984495 246.678018 133.871242 247.039063 128.675408 247.039063L128.675408 247.039063zM71 231L71 318.514225C71 320.990658 72.9790707 323 75.4219339 323L114.578066 323C117.019255 323 119 320.992357 119 318.514225L119 246.53121C101.595228 245.045011 85.3005442 239.567304 71 231L71 231z"/>
    </g>
    <g fill="#00599A" fill-rule="nonzero" transform="translate(26 61)">
      <path d="M278.260521 310C275.908713 310 274 308.02263 274 305.58405 274 303.143703 275.907009 301.166333 278.258816 301.164566 278.589433 301.164566 311.453385 301.0285 326.380545 290.740521 328.33868 289.386933 330.985315 289.941798 332.28733 291.973948 333.589345 294.004331 333.057632 296.746849 331.097793 298.098671 314.025035 309.865701 279.712506 310 278.260521 310L278.260521 310zM255.833147 234L9.16685316 234C4.11237572 234 0 229.917341 0 224.899388L0 127.100612C0 122.082659 4.11237572 118 9.16685316 118L255.833147 118C260.887624 118 265 122.082659 265 127.100612L265 224.899388C265 229.919023 260.887624 234 255.833147 234zM9.16685316 126.410917C8.78391253 126.410917 8.47213786 126.720439 8.47213786 127.100612L8.47213786 224.899388C8.47213786 225.281244 8.78391253 225.589083 9.16685316 225.589083L255.833147 225.589083C256.216087 225.589083 256.527862 225.279561 256.527862 224.899388L256.527862 127.100612C256.527862 126.718756 256.216087 126.410917 255.833147 126.410917L9.16685316 126.410917z"/>
      <path d="M132.500846 295C88.5672386 295 48.3338023 270.939015 27.5025859 232.207437 26.79908 230.900875 26.8362846 229.322884 27.6006709 228.050039 28.363366 226.77888 29.7416288 226 31.2281233 226L233.771877 226C235.258371 226 236.636634 226.77888 237.399329 228.050039 238.163715 229.322884 238.20092 230.899189 237.497414 232.207437 216.666198 270.939015 176.434453 295 132.500846 295zM38.5540552 234.429437C58.7189703 266.763072 94.0904366 286.570563 132.500846 286.570563 170.911255 286.570563 206.28103 266.763072 226.447636 234.429437L38.5540552 234.429437zM332.973353 87L260.026647 87C252.291725 87 246 80.7185346 246 73 246 65.2814654 252.291725 59 260.026647 59L332.973353 59C340.708275 59 347 65.2814654 347 73 347 80.7185346 340.708275 87 332.973353 87L332.973353 87zM260.026647 67.4616129C256.967274 67.4616129 254.479414 69.9464394 254.479414 72.9983073 254.479414 76.0501753 256.967274 78.5350018 260.026647 78.5350018L332.973353 78.5350018C336.032726 78.5350018 338.520586 76.0501753 338.520586 72.9983073 338.520586 69.9464394 336.03103 67.4616129 332.973353 67.4616129L260.026647 67.4616129z"/>
      <path d="M331.089628,68 L261.910372,68 C261.605975,68 261.303269,67.9658599 261.005637,67.9009937 C254.628523,66.4893007 250,60.6923124 250,54.1186368 C250,46.3329879 256.273957,40 263.987035,40 L329.012965,40 C336.726043,40 343,46.3329879 343,54.1186368 C343,60.6940194 338.371477,66.4893007 331.994363,67.9009937 C331.696731,67.9675669 331.394025,68 331.089628,68 L331.089628,68 Z M262.434611,59.4649759 L330.56708,59.4649759 C332.894025,58.770225 334.546223,56.5835518 334.546223,54.1186368 C334.546223,51.0392001 332.063698,48.5350241 329.014656,48.5350241 L263.988726,48.5350241 C260.937993,48.5350241 258.457158,51.0392001 258.457158,54.1186368 C258.455468,56.5835518 260.105975,58.770225 262.434611,59.4649759 L262.434611,59.4649759 Z"/>
      <path d="M329.443958,49 L267.556042,49 C266.426497,49 265.342675,48.5487376 264.546743,47.74762 C263.752505,46.9448124 263.310509,45.8614445 263.322363,44.7324434 C263.468002,30.3917632 255.540862,18.6166874 250.802528,12.8719647 C248.848262,10.5041046 248.45199,7.30470475 249.766124,4.52614514 C251.087032,1.73575469 253.827069,0 256.917654,0 L340.080652,0 C343.171238,0 345.912968,1.73406457 347.233876,4.52614514 C348.54801,7.30470475 348.151738,10.5024145 346.197472,12.8719647 C341.459138,18.6149972 333.531998,30.3900731 333.677637,44.7324434 C333.689491,45.8614445 333.247495,46.9465025 332.453257,47.74762 C331.657325,48.5487376 330.575197,49 329.443958,49 L329.443958,49 Z M271.639002,40.5493929 L325.360998,40.5493929 C326.509172,26.2729374 333.865612,14.7665908 338.890142,8.45229719 L258.111551,8.45229719 C263.134388,14.7665908 270.492522,26.2729374 271.639002,40.5493929 Z"/>
      <path d="M308.156578,48 C305.860484,48 304,46.1289004 304,43.8197061 C304,33.3388732 306.756643,24.3177989 306.87469,23.9382282 C307.558031,21.7327051 309.890703,20.5053708 312.078726,21.1892669 C314.268411,21.8748351 315.492108,24.2174718 314.812091,26.4196506 C314.787152,26.5015844 312.313157,34.6565018 312.313157,43.818034 C312.313157,46.1289004 310.452672,48 308.156578,48 L308.156578,48 Z"/>
      <polygon points="83 178 75.029 178 75.029 193.874 59.92 193.874 59.92 178 52 178 52 218 59.92 218 59.92 201.029 75.029 201.029 75.029 218 83 218"/>
      <path d="M106.263551 179L98.7862622 179 85.1041304 215.786174C84.9166122 216.288699 84.9852572 216.852342 85.2866258 217.293749 85.5879943 217.736854 86.0835781 218 86.6143216 218L92.7354516 218 92.7371258 218 95.7407657 209.584407 109.258819 209.584407 112.262459 218 118.385263 218C118.914332 218 119.41159 217.736854 119.712959 217.295447 120.014327 216.85404 120.082973 216.290397 119.897129 215.787872L106.263551 179zM106.764157 202.644132L98.2337532 202.644132 102.498118 190.709168 106.764157 202.644132zM152.360044 178L146.081685 178 135.959362 206.199247 125.976633 178 119.642095 178C119.105847 178 118.603646 178.261897 118.295516 178.705238 117.989089 179.146868 117.915887 179.713454 118.099743 180.218418L131.849828 218 140.096133 218 153.898992 180.221842C154.08455 179.715166 154.011348 179.150291 153.704921 178.708661 153.400196 178.263608 152.896293 178 152.360044 178L152.360044 178z"/>
      <polygon points="179 178 156 178 156 218 179 218 179 210.846 163.851 210.846 163.851 201.339 177.475 201.339 177.475 194.396 163.851 194.396 163.851 185.152 179 185.152"/>
      <polygon points="213 178 204.92 178 204.92 203.169 188.318 178 181 178 181 218 189.082 218 189.082 192.869 205.684 218 213 218"/>
      <polygon points="114 134 85 134 85 140.984 95.443 140.984 95.443 173 103.557 173 103.557 140.984 114 140.984"/>
      <path d="M146.896928 170.783201L133.269037 134 125.787716 134 125.786037 134 112.10442 170.779796C111.91638 171.283768 111.985216 171.849035 112.287424 172.291714 112.589632 172.736095 113.086596 173 113.618817 173L119.743561 173 122.745491 164.587401 136.25082 164.587401 139.254429 173 145.379173 173C145.909716 173 146.408359 172.736095 146.710566 172.293417 147.014453 171.85244 147.083289 171.287174 146.896928 170.783201L146.896928 170.783201zM133.757606 157.640749L125.243742 157.640749 129.501514 145.72588 133.757606 157.640749zM180.745994 170.526307L169.807814 153.513389 180.44571 136.456956C180.756231 135.958201 180.768174 135.335594 180.478127 134.825122 180.186374 134.316325 179.636991 134 179.043248 134L172.67416 134 165.187537 146.42035 157.19248 134 150.645951 134C150.045383 134 149.494294 134.319672 149.204247 134.835164 148.9142 135.350657 148.934674 135.979959 149.255432 136.477041L160.041764 153.193717 149.441403 170.556433C149.137707 171.055188 149.129176 171.676122 149.420929 172.181572 149.712682 172.687023 150.260359 173 150.852396 173L157.235134 173 164.679102 160.347009 172.861837 173 179.352063 173C179.950924 173 180.50372 172.680328 180.79206 172.166509 181.08552 171.652691 181.066752 171.023389 180.745994 170.526307L180.745994 170.526307z"/>
      <path d="M255.833147,234 L9.16685316,234 C4.11237572,234 0,229.917341 0,224.899388 L0,127.100612 C0,122.082659 4.11237572,118 9.16685316,118 L255.833147,118 C260.887624,118 265,122.082659 265,127.100612 L265,224.899388 C265,229.919023 260.887624,234 255.833147,234 Z M9.16685316,126.410917 C8.78391253,126.410917 8.47213786,126.720439 8.47213786,127.100612 L8.47213786,224.899388 C8.47213786,225.281244 8.78391253,225.589083 9.16685316,225.589083 L255.833147,225.589083 C256.216087,225.589083 256.527862,225.279561 256.527862,224.899388 L256.527862,127.100612 C256.527862,126.718756 256.216087,126.410917 255.833147,126.410917 L9.16685316,126.410917 Z"/>
      <path d="M233.771877 125L31.2281233 125C29.7416288 125 28.363366 124.22112 27.6006709 122.949961 26.8362846 121.677116 26.79908 120.100811 27.5025859 118.792563 48.3338023 80.0609851 88.5655475 56 132.500846 56 176.434453 56 216.667889 80.0609851 237.497414 118.792563 238.20092 120.099125 238.163715 121.677116 237.399329 122.949961 236.636634 124.22112 235.258371 125 233.771877 125zM38.5540552 116.570563L226.445945 116.570563C206.28103 84.2369283 170.911255 64.4294371 132.499154 64.4294371 94.0870544 64.4294371 58.7189703 84.2386142 38.5540552 116.570563zM132.500846 295C88.5672386 295 48.3338023 270.939015 27.5025859 232.207437 26.79908 230.900875 26.8362846 229.322884 27.6006709 228.050039 28.363366 226.77888 29.7416288 226 31.2281233 226L233.771877 226C235.258371 226 236.636634 226.77888 237.399329 228.050039 238.163715 229.322884 238.20092 230.899189 237.497414 232.207437 216.666198 270.939015 176.434453 295 132.500846 295zM38.5540552 234.429437C58.7189703 266.763072 94.0904366 286.570563 132.500846 286.570563 170.911255 286.570563 206.28103 266.763072 226.447636 234.429437L38.5540552 234.429437z"/>
      <path d="M292.408121,357 C282.224139,357 271.977273,355.699394 261.874871,353.072879 L210.093268,339.60461 C194.946465,335.665682 179.374762,334.516898 163.814957,336.195371 L147.706182,337.929511 C146.506267,338.054343 145.306352,337.676475 144.410665,336.875194 C143.513278,336.0756 143,334.935251 143,333.737546 L143.003399,289.805416 C143.003399,287.693408 144.577225,285.906973 146.686425,285.625259 C175.277035,281.807788 200.956237,267.239655 218.994054,244.603044 C220.139582,243.162425 222.089019,242.624302 223.819208,243.270387 C223.834505,243.275448 224.009563,243.337863 224.024859,243.342924 C248.169326,252.639471 267.782669,257.759235 279.253245,257.759235 C282.540264,257.759235 286.036334,257.681637 289.416831,257.607413 C306.932872,257.217738 325.040372,256.819628 334.427243,265.930615 C338.436591,269.823997 340.469308,275.078714 340.469308,281.549691 C340.469308,282.398205 340.408123,283.31757 340.256859,284.285855 L400.747194,255.800736 C412.156585,250.429622 425.987901,255.200197 431.581272,266.436687 C436.85512,277.032153 433.255375,289.807103 423.20906,296.149875 L352.199923,340.974379 C352.147235,341.008117 352.094548,341.038482 352.04186,341.070533 C333.614836,351.610331 313.144897,357 292.408121,357 L292.408121,357 Z M177.692162,327.011846 C189.327599,327.011846 200.896752,328.492951 212.246656,331.445039 L264.02826,344.913308 C292.4965,352.315458 322.210544,348.371468 347.711288,333.80671 L418.640545,289.031125 C425.017431,285.004477 427.303388,276.8972 423.955183,270.169813 C420.403027,263.035882 411.62801,260.011257 404.382631,263.41881 L330.378804,298.266944 C330.351611,298.2855 330.324417,298.302369 330.297224,298.320925 C328.351186,299.606348 325.728708,299.086781 324.425118,297.168767 C323.118128,295.249066 323.61611,292.642794 325.540053,291.332067 L325.842581,291.126264 C325.888471,291.094213 325.936059,291.063849 325.983648,291.033484 C330.008292,288.27033 331.966227,285.164733 331.966227,281.54463 C331.966227,277.369534 330.825798,274.233573 328.480355,271.956248 C321.651377,265.326702 304.62312,265.702882 289.602087,266.035203 C286.174001,266.111114 282.630343,266.188712 279.249846,266.188712 C264.040157,266.188712 241.155092,258.840543 223.683241,252.244735 C205.193331,274.274059 179.782665,288.767968 151.501381,293.43058 L151.497982,329.031075 L162.898875,327.803006 C167.829404,327.278378 172.768431,327.011846 177.692162,327.011846 Z"/>
      <path d="M143.188422,360 L122.285786,360 C119.918318,360 118,358.11529 118,355.7893 L118,290.819875 C118,289.642563 118.502294,288.517464 119.385166,287.7208 C120.268038,286.922451 121.444058,286.526645 122.644078,286.624333 C125.968134,286.898871 129.071043,287.031929 132.127665,287.031929 C137.095749,287.031929 142.147833,286.696757 147.143346,286.036519 C148.367366,285.878197 149.606815,286.238633 150.535974,287.04035 C151.466847,287.840384 152,288.9958 152,290.210166 L152,351.3428 C152.001713,356.117734 148.048504,360 143.188422,360 L143.188422,360 Z M126.571572,351.578599 L143.188422,351.578599 C143.322139,351.578599 143.43014,351.472489 143.43014,351.341116 L143.43014,294.927835 C137.807189,295.446593 132.311097,295.589757 126.571572,295.318588 L126.571572,351.578599 Z"/>
      <path d="M118.294582 371L78.7037246 371C73.9057562 371 70 367.063463 70 362.223878L70 274.268054C70 272.736799 70.8143341 271.319919 72.1348758 270.561973 73.4554176 269.800614 75.0773138 269.81427 76.3860045 270.594408 90.7663657 279.157144 106.489278 284.215236 123.121332 285.626995 125.31377 285.813067 127 287.660132 127 289.879342L127 362.225585C126.998307 367.063463 123.094244 371 118.294582 371L118.294582 371zM78.4650113 281.487315L78.4650113 362.223878C78.4650113 362.355324 78.5716704 362.464577 78.7037246 362.464577L118.296275 362.464577C118.42833 362.464577 118.534989 362.357031 118.534989 362.223878L118.534989 293.73906C104.464447 292.084895 91.030474 287.975943 78.4650113 281.487315L78.4650113 281.487315zM403.213536 232L326.786463 232C320.838771 232 316 227.133702 316 221.152175L316 212.847825C316 206.866298 320.838771 202 326.786463 202L403.213536 202C409.161227 202 414 206.866298 414 212.847825L414 221.152175C414.001699 227.135413 409.161227 232 403.213536 232zM326.788164 210.552369C325.549983 210.552369 324.505692 211.6026 324.505692 212.847825L324.505692 221.152175C324.505692 222.3974 325.551683 223.447631 326.788164 223.447631L403.215237 223.447631C404.453418 223.447631 405.497708 222.3974 405.497708 221.152175L405.497708 212.847825C405.497708 211.6026 404.451717 210.552369 403.215237 210.552369L326.788164 210.552369z"/>
      <path d="M403.213536 254L326.786463 254C320.838771 254 316 249.132269 316 243.151083L316 234.848917C316 228.867731 320.838771 224 326.786463 224L403.213536 224C409.161227 224 414 228.867731 414 234.848917L414 243.151083C414.001699 249.133979 409.161227 254 403.213536 254zM326.788164 232.551881C325.549983 232.551881 324.505692 233.603763 324.505692 234.848917L324.505692 243.151083C324.505692 244.396237 325.551683 245.448119 326.788164 245.448119L403.215237 245.448119C404.453418 245.448119 405.497708 244.396237 405.497708 243.151083L405.497708 234.848917C405.497708 233.603763 404.451717 232.551881 403.215237 232.551881L326.788164 232.551881zM417.213537 211L340.786463 211C334.838771 211 330 206.132269 330 200.151083L330 191.848917C330 185.867731 334.838771 181 340.786463 181L417.213537 181C423.161229 181 428 185.867731 428 191.848917L428 200.151083C428 206.133979 423.161229 211 417.213537 211zM340.788164 189.551881C339.549983 189.551881 338.505692 190.603763 338.505692 191.848917L338.505692 200.151083C338.505692 201.396237 339.551683 202.448119 340.788164 202.448119L417.215238 202.448119C418.453419 202.448119 419.497709 201.396237 419.497709 200.151083L419.497709 191.848917C419.497709 190.603763 418.451718 189.551881 417.215238 189.551881L340.788164 189.551881z"/>
      <path d="M335.907356 189C331.188697 189 326.85254 185.889403 325.549323 181.167333L323.382937 173.312866C322.628087 170.579565 322.99705 167.713792 324.420433 165.242083 325.843816 162.770374 328.147294 160.997921 330.907743 160.250036L404.266986 140.379108C407.027435 139.6329 409.921591 139.995104 412.414628 141.405353 414.909356 142.817279 416.698317 145.097824 417.453167 147.832802L419.619553 155.685592C421.178336 161.34168 417.805205 167.200669 412.09644 168.748422L338.733812 188.621027C337.791096 188.877588 336.84161 189 335.907356 189zM407.086672 148.389523C406.903884 148.389523 406.705862 148.412999 406.499379 148.468336L333.138444 168.340942C332.358206 168.552228 331.946932 169.095534 331.770913 169.400725 331.594894 169.705915 331.332558 170.333065 331.545812 171.104426L333.712198 178.96057C334.037156 180.137734 335.314985 180.863819 336.503112 180.536829L409.864047 160.6659C411.050482 160.343941 411.779944 159.077903 411.454986 157.900739L409.288601 150.047949C409.075347 149.274911 408.526981 148.867432 408.218948 148.69136 407.992154 148.562241 407.592727 148.389523 407.086672 148.389523L407.086672 148.389523zM334.803878 297L332.251339 297C330.533775 297 328.984565 295.960151 328.324748 294.36446 327.666632 292.76706 328.027151 290.930221 329.239649 289.705661 331.452076 287.472037 332.52853 285.063964 332.52853 282.344621 332.52853 278.804344 331.734369 276.028562 330.101833 273.854797 329.129113 272.560116 328.96926 270.824183 329.686896 269.370446 330.406233 267.91842 331.880617 267 333.492747 267L379.747951 267C381.735905 267 383.458571 268.387036 383.895615 270.336754 384.332658 272.286472 383.366741 274.282367 381.570951 275.139217L336.626877 296.586113C336.05719 296.859757 335.434786 297 334.803878 297L334.803878 297zM340.184447 275.553104C340.749032 277.646485 341.031325 279.914315 341.031325 282.346331 341.031325 283.288695 340.963303 284.213956 340.827258 285.118693L360.871747 275.553104 340.184447 275.553104z"/>
      <path d="M380.046963,275 L333.785248,275 C332.451822,275 331.196633,274.372256 330.393856,273.30321 C328.296772,270.511717 324.679174,268.578881 319.335266,267.393523 C317.386151,266.960773 316,265.222932 316,263.218256 L316,255.847825 C316,249.866298 320.838771,245 326.786463,245 L403.213537,245 C409.161229,245 414,249.866298 414,255.847825 L414,257.811449 C414,260.009408 412.343422,261.848167 410.169802,262.065397 C408.44009,262.239865 406.800521,262.691431 405.293613,263.40983 L381.871919,274.586065 C381.300451,274.859741 380.677959,275 380.046963,275 L380.046963,275 Z M335.744568,266.447631 L379.089413,266.447631 L401.645401,255.68533 C402.718605,255.172188 403.830927,254.74628 404.975564,254.407606 C404.552065,253.889332 403.914266,253.552369 403.213537,253.552369 L326.786463,253.552369 C325.548282,253.552369 324.503992,254.6026 324.503992,255.847825 L324.503992,259.917042 C329.284936,261.386339 332.996078,263.541536 335.744568,266.447631 L335.744568,266.447631 Z"/>
      <path d="M320.141857 267C319.955223 267 319.766892 266.988165 319.576865 266.964494 319.461491 266.947587 319.339331 266.927298 319.220564 266.900246 311.176644 265.124965 300.582627 265.361669 290.334731 265.584847 286.917634 265.660931 283.385164 265.738705 280.013878 265.738705 264.024445 265.738705 239.539778 257.57072 221.812953 250.718135 220.55063 250.237964 219.52584 249.164341 219.166146 247.86585 218.808148 246.567358 219.023625 245.153896 219.861781 244.097181 223.967726 238.923504 227.607087 233.406607 230.679759 227.696964 231.417811 226.32408 232.854892 225.468563 234.417526 225.468563L256.309679 225.468563C256.693127 225.468563 257.005315 225.157466 257.005315 224.775358L257.005315 126.4755C257.005315 126.091701 256.693127 125.782294 256.309679 125.782294L234.417526 125.782294C232.854892 125.782294 231.417811 124.925087 230.679759 123.553894 229.144271 120.701609 227.408576 117.808746 225.518484 114.951388 224.429221 113.304603 224.627732 111.126925 225.995249 109.703319 229.062831 106.509503 232.084603 103.538866 235.007968 100.666292 242.271419 93.5262796 248.54571 87.3618268 253.0877 80.286063 254.134547 78.6528042 256.163766 77.9359287 258.008048 78.5564318 258.66466 78.7745378 259.231348 78.8810547 259.738653 78.8810547L332.719283 78.8810547C333.474302 78.8810547 334.234411 78.7102895 334.972463 78.3772129 336.908365 77.5064798 339.185298 78.1861589 340.315281 79.9732753 344.867451 87.1775357 351.228273 93.4282164 358.593524 100.666292 370.421021 112.288466 383.82812 125.461053 394.057353 147.031566 394.593501 148.160983 394.600288 149.469619 394.076016 150.604108 393.551745 151.740288 392.550709 152.58566 391.340982 152.913664L333.121394 168.774534C332.339228 168.989259 331.926937 169.535369 331.750483 169.844775 331.57403 170.15249 331.311045 170.784829 331.524826 171.562571L333.696566 179.483707C333.910346 180.26314 334.460068 180.6723 334.767165 180.849828 335.07596 181.025665 335.710515 181.282658 336.49268 181.074697L396.65835 164.684624C398.882687 164.075956 401.191857 165.359231 401.845075 167.565652 403.445037 172.972651 404.817644 178.705965 405.927267 184.601589 406.159711 185.837523 405.82886 187.112344 405.022941 188.08114 404.217022 189.049937 403.020869 189.607882 401.758545 189.607882L340.389935 189.607882C339.154758 189.607882 338.113002 190.64769 338.113002 191.878551L338.113002 200.085423C338.113002 201.316285 339.156455 202.356092 340.391632 202.356092 342.734735 202.357783 344.633311 204.249726 344.631614 206.584643 344.631614 208.91787 342.731342 210.809812 340.389935 210.809812L326.624839 210.809812C325.389662 210.809812 324.347905 211.847929 324.347905 213.078791L324.347905 221.287353C324.347905 222.518215 325.391358 223.556332 326.624839 223.556332 328.967942 223.556332 330.866518 225.448274 330.866518 227.783192 330.866518 230.118109 328.967942 232.010052 326.624839 232.010052 325.389662 232.010052 324.347905 233.04986 324.347905 234.280721L324.347905 242.487593C324.347905 243.718455 325.391358 244.758262 326.626535 244.758262 328.969639 244.759953 330.868214 246.651895 330.866518 248.986813 330.866518 251.32004 328.966245 253.211982 326.624839 253.211982 325.389662 253.211982 324.347905 254.250099 324.347905 255.480961L324.347905 262.225339C324.402199 262.642953 324.395412 263.075783 324.317365 263.510304 323.950884 265.551032 322.167682 267 320.141857 267L320.141857 267zM300.764171 256.973888C305.993313 256.973888 311.118957 257.149725 315.859458 257.756702L315.859458 255.47927C315.859458 253.039526 316.682343 250.787455 318.065131 248.981741 316.682343 247.179408 315.859458 244.927337 315.859458 242.485902L315.859458 234.279031C315.859458 231.839287 316.680647 229.587216 318.063434 227.781501 316.680647 225.979168 315.859458 223.727097 315.859458 221.285663L315.859458 213.0771C315.859458 207.164568 320.686488 202.354401 326.619749 202.354401L329.868875 202.354401C329.709388 201.622309 329.626251 200.863165 329.626251 200.083732L329.626251 191.876861C329.626251 190.531028 329.875661 189.242681 330.332066 188.055779 327.951636 186.62541 326.243088 184.381792 325.511822 181.712107L323.340083 173.792662C322.583367 171.03844 322.953241 168.147268 324.380142 165.655111 325.807043 163.162955 328.116213 161.375838 330.881788 160.621766L384.121644 146.116873C374.835761 128.49932 363.093097 116.959992 352.63651 106.68534 346.055121 100.219935 339.797797 94.0690084 334.924956 87.155556 334.195387 87.2739081 333.459032 87.3330841 332.717586 87.3330841L259.736956 87.3330841C259.353508 87.3330841 258.97006 87.314486 258.584916 87.2806711 253.727345 94.1400197 247.509044 100.252059 240.964982 106.68365 238.832266 108.780172 236.645256 110.930799 234.442977 113.165962 235.306582 114.550682 236.134558 115.942164 236.921814 117.328574L256.307983 117.328574C261.369154 117.328574 265.486976 121.43201 265.486976 126.4755L265.486976 224.773667C265.486976 229.817157 261.369154 233.920593 256.307983 233.920593L236.92351 233.920593C234.819638 237.631776 232.495198 241.260113 229.972247 244.765025 251.73715 252.856926 269.380837 257.281603 280.013878 257.281603 283.290151 257.281603 286.775114 257.203829 290.1464 257.129436 293.67378 257.053353 297.243577 256.973888 300.764171 256.973888L300.764171 256.973888zM368.368049 181.152471L396.570123 181.152471C396.035672 178.704274 395.452017 176.296654 394.825945 173.943139L368.368049 181.152471zM328.313585 300C326.633988 300 325.057328 299.019258 324.364216 297.428772 323.539 295.535991 324.149763 293.328892 325.855094 292.167803 330.037788 289.316609 332.072519 286.123614 332.072519 282.410191 332.072519 278.854786 331.271322 276.065424 329.624322 273.882371 328.642985 272.582158 328.48 270.840525 329.20571 269.380576 329.929704 267.920627 331.418866 267 333.045279 267L379.71028 267C381.715846 267 383.453774 268.392963 383.89469 270.351012 384.335606 272.309062 383.361131 274.313486 381.54943 275.173997L330.159597 299.584344C329.878235 299.716598 329.583147 299.821371 329.279482 299.890074 328.95866 299.963931 328.634407 300 328.313585 300L328.313585 300zM339.796263 275.589653C340.364135 277.691979 340.650645 279.9695 340.650645 282.411909 340.650645 283.360017 340.58202 284.287514 340.448201 285.192682L360.665127 275.589653 339.796263 275.589653z"/>
      <path d="M318.655404 115C315.441478 115 312.341796 113.895292 309.88221 111.822488 306.733806 109.171188 305 105.322417 305 100.987913L305 83.2164441C305 80.8872804 306.87997 79 309.200112 79L327.799888 79C330.12003 79 332 80.8872804 332 83.2164441L332 100.704568C332 107.857344 327.531081 113.645678 321.13011 114.780745 320.303528 114.927477 319.476946 115 318.655404 115L318.655404 115zM313.400224 87.4328883L313.400224 100.987913C313.400224 102.785805 314.068882 104.340829 315.281874 105.362895 316.461266 106.354603 318.057308 106.759382 319.670151 106.476037 322.385104 105.995362 323.599776 103.231061 323.599776 100.704568L323.599776 87.4328883 313.400224 87.4328883zM214.76409 126L51.2359099 126C49.6755297 126 48.2405221 125.147927 47.5018405 123.783265 46.7648531 122.418603 46.8444817 120.761514 47.7085358 119.47416 66.7922733 90.9994506 98.6758719 74 133.000847 74 167.324128 74 199.209421 90.9994506 218.291464 119.47416 219.155518 120.763194 219.235147 122.420284 218.498159 123.783265 217.759478 125.147927 216.32447 126 214.76409 126L214.76409 126zM59.554549 117.59691L206.447145 117.59691C188.661183 95.4211564 161.763685 82.4030898 133.000847 82.4030898 104.236315 82.4030898 77.3388167 95.4211564 59.554549 117.59691zM133.000847 278C98.6775661 278 66.7922733 261.000549 47.7085358 232.52584 46.8444817 231.236806 46.7648531 229.579716 47.5018405 228.216735 48.2405221 226.852073 49.6738355 226 51.2359099 226L214.76409 226C216.32447 226 217.759478 226.852073 218.498159 228.216735 219.235147 229.581397 219.155518 231.238486 218.291464 232.52584 199.207727 260.998869 167.324128 278 133.000847 278zM59.554549 234.401409C77.340511 256.577163 104.238009 269.59523 133.000847 269.59523 161.763685 269.59523 188.661183 256.577163 206.447145 234.401409L59.554549 234.401409z"/>
    </g>
  </g>
</svg>
